<svg width="24" height="24" viewBox="0 0 24 24" fill="none" xmlns="http://www.w3.org/2000/svg">
<path d="M19.1997 12.2099V9.13994C19.1997 7.23038 18.4411 5.39903 17.0909 4.04877C15.7406 2.69851 13.9092 1.93994 11.9997 1.93994C10.0901 1.93994 8.25878 2.69851 6.90852 4.04877C5.55826 5.39903 4.79969 7.23038 4.79969 9.13994V12.2099C4.18039 12.4549 3.66644 12.9091 3.34708 13.4935C3.02773 14.0779 2.92313 14.7557 3.05146 15.4093C3.17979 16.0628 3.53293 16.6507 4.04957 17.071C4.56622 17.4913 5.21373 17.7173 5.87969 17.7099H18.1197C18.7856 17.7173 19.4332 17.4913 19.9498 17.071C20.4664 16.6507 20.8196 16.0628 20.9479 15.4093C21.0762 14.7557 20.9716 14.0779 20.6523 13.4935C20.3329 12.9091 19.819 12.4549 19.1997 12.2099Z" fill="#D1D5DA"/>
<path d="M11.9096 22.0002C12.86 22.0028 13.7727 21.6285 14.4475 20.9593C15.1223 20.2901 15.5043 19.3806 15.5096 18.4302H8.30957C8.31486 19.3806 8.6968 20.2901 9.37164 20.9593C10.0465 21.6285 10.9592 22.0028 11.9096 22.0002Z" fill="#D1D5DA"/>
</svg>
