<svg width="216" height="38" viewBox="0 0 216 38" fill="none" xmlns="http://www.w3.org/2000/svg">
<path d="M6.38611 32.3991C6.38611 33.2824 6.08654 34.0228 5.48858 34.6213C4.89003 35.2199 4.14908 35.5189 3.26632 35.5189C2.8344 35.5189 2.42256 35.4356 2.03023 35.2689C1.6373 35.1023 1.28928 34.8819 0.98557 34.6066C0.681272 34.3318 0.440788 34.0033 0.264709 33.6204C0.0880395 33.2375 0 32.831 0 32.3991V18.5355C0 17.0637 0.289526 15.6757 0.868578 14.3705C1.44704 13.0658 2.23703 11.9272 3.23796 10.9558C4.23889 9.98446 5.40113 9.21456 6.72586 8.64555C8.05059 8.07654 9.44859 7.79175 10.9204 7.79175C12.3923 7.79175 13.8884 8.086 15.2326 8.6745C16.5762 9.26301 17.7592 10.0678 18.7796 11.0882C19.7994 10.0684 20.9918 9.26301 22.3561 8.6745C23.7198 8.086 25.1669 7.79175 26.6978 7.79175C28.2288 7.79175 29.5824 8.0665 30.8776 8.61601C32.1728 9.16552 33.3108 9.92124 34.2923 10.8826C35.2731 11.8445 36.0584 12.963 36.6469 14.2381C37.2354 15.5138 37.5592 16.8775 37.6183 18.3293C37.6183 18.3689 37.623 18.4132 37.633 18.4617C37.6425 18.5107 37.6478 18.555 37.6478 18.594V32.3985C37.6478 32.8304 37.5639 33.2375 37.3979 33.6198C37.2307 34.0027 37.0049 34.3312 36.7207 34.606C36.4359 34.8807 36.1074 35.1017 35.7346 35.2683C35.3617 35.4356 34.9594 35.5183 34.528 35.5183C34.0967 35.5183 33.6789 35.435 33.2772 35.2683C32.8748 35.1017 32.5268 34.8813 32.2325 34.606C31.9382 34.3312 31.7025 34.0027 31.5258 33.6198C31.3491 33.2369 31.2611 32.8304 31.2611 32.3985V18.5054C31.2416 17.8779 31.1039 17.2988 30.8493 16.7688C30.594 16.2388 30.2555 15.7827 29.8336 15.4004C29.4111 15.0175 28.9307 14.7185 28.3913 14.5028C27.8512 14.2872 27.2674 14.179 26.6399 14.179C26.0124 14.179 25.4133 14.2966 24.8443 14.5324C24.2747 14.7681 23.7795 15.0872 23.3576 15.489C22.9352 15.8914 22.6019 16.3623 22.3567 16.9018C22.1109 17.4418 21.9886 18.025 21.9886 18.6531V32.3991C21.9886 33.2824 21.689 34.0228 21.0911 34.6213C20.4925 35.2199 19.7516 35.5189 18.8688 35.5189C18.4369 35.5189 18.0251 35.4356 17.6327 35.2689C17.2398 35.1023 16.8918 34.8819 16.5881 34.6066C16.2838 34.3318 16.0433 34.0033 15.8672 33.6204C15.6905 33.2375 15.6025 32.831 15.6025 32.3991V18.5355C15.583 17.908 15.45 17.3242 15.2048 16.7842C14.959 16.2447 14.6311 15.7833 14.2187 15.401C13.8062 15.0187 13.3253 14.7191 12.7764 14.5034C12.2269 14.2878 11.6383 14.1796 11.0103 14.1796C10.3822 14.1796 9.78893 14.2931 9.22937 14.5182C8.67041 14.7439 8.1794 15.0583 7.75752 15.46C7.33505 15.8624 7.0018 16.3286 6.75659 16.858C6.51079 17.388 6.38848 17.9571 6.38848 18.5651V32.3991H6.38611Z" fill="#2E6FFF"/>
<path d="M40.5554 22.0097C40.5554 20.0669 40.9277 18.2471 41.6739 16.5495C42.4196 14.8525 43.43 13.3659 44.7057 12.0902C45.9808 10.8151 47.4674 9.80885 49.165 9.07322C50.8619 8.33759 52.6724 7.96948 54.5957 7.96948C56.5189 7.96948 58.363 8.33759 60.0706 9.07322C61.7777 9.80885 63.2643 10.8151 64.5299 12.0902C65.7956 13.3659 66.7912 14.8525 67.5174 16.5495C68.243 18.2471 68.6063 20.0669 68.6063 22.0097C68.6063 23.9525 68.243 25.7481 67.5174 27.4552C66.7912 29.1622 65.7956 30.6541 64.5299 31.9292C63.2643 33.2049 61.7777 34.2106 60.0706 34.9462C58.3636 35.6818 56.5384 36.0499 54.5957 36.0499C52.6529 36.0499 50.8619 35.6818 49.165 34.9462C47.4674 34.2106 45.9808 33.2049 44.7057 31.9292C43.43 30.6541 42.4196 29.1622 41.6739 27.4552C40.9283 25.7481 40.5554 23.933 40.5554 22.0097ZM46.9427 22.0097C46.9427 23.0502 47.1436 24.0358 47.546 24.9676C47.9478 25.9 48.4973 26.7142 49.1945 27.4109C49.8906 28.1075 50.7001 28.657 51.623 29.0594C52.5453 29.4618 53.5362 29.6627 54.5957 29.6627C55.6551 29.6627 56.6513 29.4618 57.5831 29.0594C58.5149 28.6576 59.3244 28.1081 60.0116 27.4109C60.6981 26.7148 61.2376 25.9 61.6305 24.9676C62.0229 24.0358 62.219 23.0496 62.219 22.0097C62.219 20.9698 62.0229 19.9541 61.6305 19.0223C61.2376 18.0905 60.6981 17.281 60.0116 16.5938C59.3244 15.9072 58.5149 15.3624 57.5831 14.9601C56.6507 14.5583 55.6551 14.3568 54.5957 14.3568C53.5362 14.3568 52.5696 14.5583 51.6378 14.9601C50.7054 15.3624 49.8911 15.9072 49.1945 16.5938C48.4979 17.281 47.9484 18.0905 47.546 19.0223C47.1436 19.9547 46.9427 20.9503 46.9427 22.0097Z" fill="#2E6FFF"/>
<path d="M102.297 3.326C102.297 2.85508 102.38 2.41843 102.547 2.01604C102.713 1.61425 102.939 1.26091 103.224 0.956617C103.508 0.65232 103.847 0.417156 104.24 0.24994C104.632 0.083315 105.054 0 105.505 0C105.957 0 106.403 0.0839059 106.786 0.24994C107.169 0.417156 107.502 0.65232 107.787 0.956617C108.071 1.26091 108.292 1.61425 108.449 2.01604C108.606 2.41843 108.685 2.85508 108.685 3.326V11.5639C109.803 10.8383 111.005 10.274 112.29 9.87165C113.575 9.46986 114.924 9.26837 116.338 9.26837C118.28 9.26837 120.1 9.63648 121.798 10.3721C123.495 11.1077 124.977 12.1087 126.242 13.3743C127.508 14.64 128.509 16.1266 129.245 17.8336C129.98 19.5406 130.348 21.3658 130.348 23.3086C130.348 25.2514 129.98 27.047 129.245 28.7541C128.509 30.4611 127.508 31.953 126.242 33.2281C124.977 34.5038 123.495 35.5095 121.798 36.2451C120.1 36.9807 118.28 37.3488 116.338 37.3488C114.395 37.3488 112.599 36.9807 110.892 36.2451C109.185 35.5095 107.693 34.5038 106.418 33.2281C105.143 31.953 104.137 30.4611 103.401 28.7541C102.666 27.047 102.297 25.2319 102.297 23.3086V3.326H102.297ZM108.684 23.3086C108.684 24.3491 108.885 25.3347 109.287 26.2665C109.689 27.1989 110.239 28.0131 110.936 28.7097C111.632 29.4064 112.442 29.9559 113.364 30.3583C114.287 30.7606 115.278 30.9615 116.337 30.9615C117.397 30.9615 118.387 30.7606 119.31 30.3583C120.232 29.9565 121.042 29.407 121.738 28.7097C122.435 28.0137 122.979 27.1989 123.372 26.2665C123.764 25.3347 123.96 24.3485 123.96 23.3086C123.96 22.2687 123.764 21.253 123.372 20.3212C122.979 19.3894 122.435 18.5799 121.738 17.8927C121.042 17.2061 120.232 16.6613 119.31 16.2589C118.387 15.8572 117.397 15.6557 116.337 15.6557C115.278 15.6557 114.286 15.8572 113.364 16.2589C112.442 16.6613 111.633 17.2061 110.936 17.8927C110.239 18.5799 109.69 19.3894 109.287 20.3212C108.885 21.2536 108.684 22.2492 108.684 23.3086V23.3086Z" fill="#FFB000"/>
<path d="M139.763 23.7802C139.763 24.7811 139.945 25.7182 140.308 26.5909C140.671 27.4642 141.171 28.2247 141.81 28.8723C142.447 29.5199 143.203 30.0304 144.076 30.4026C144.949 30.7755 145.887 30.9622 146.887 30.9622C147.887 30.9622 148.82 30.7708 149.624 30.3885C150.429 30.0056 151.111 29.4862 151.67 28.8286C152.229 28.1715 152.661 27.401 152.965 26.5177C153.269 25.6349 153.421 24.6925 153.421 23.6921V20.3295C153.421 19.8781 153.51 19.4609 153.686 19.0786C153.863 18.6958 154.103 18.3625 154.407 18.0777C154.711 17.7935 155.059 17.5678 155.452 17.4006C155.844 17.2339 156.256 17.1506 156.688 17.1506C157.12 17.1506 157.551 17.2345 157.924 17.4006C158.296 17.5678 158.625 17.7935 158.91 18.0777C159.194 18.3625 159.415 18.6958 159.572 19.0786C159.729 19.4615 159.808 19.8787 159.808 20.3295V23.6035C159.808 25.4872 159.489 27.2634 158.851 28.9314C158.213 30.5994 157.325 32.0565 156.188 33.3026C155.05 34.5488 153.686 35.5349 152.097 36.2605C150.507 36.9867 148.771 37.3495 146.887 37.3495C145.003 37.3495 143.242 36.9914 141.603 36.2753C139.965 35.5592 138.537 34.583 137.321 33.3464C136.104 32.1103 135.143 30.6679 134.436 29.0194C133.729 27.3709 133.377 25.6154 133.377 23.7506V20.3295C133.377 19.8781 133.46 19.4609 133.627 19.0786C133.793 18.6958 134.019 18.3625 134.304 18.0777C134.588 17.7935 134.927 17.5678 135.319 17.4006C135.712 17.2339 136.124 17.1506 136.556 17.1506C136.988 17.1506 137.399 17.2345 137.792 17.4006C138.184 17.5678 138.527 17.7935 138.822 18.0777C139.116 18.3625 139.347 18.6958 139.514 19.0786C139.681 19.4615 139.764 19.8787 139.764 20.3295V23.7802H139.763Z" fill="#FFB000"/>
<path d="M183.557 30.3801H172.547L184.606 15.9676C185.194 15.3419 185.59 14.6423 185.793 13.8695C185.995 13.0966 185.986 12.3787 185.765 11.7157C185.544 11.0528 185.13 10.5198 184.523 10.1145C183.915 9.70974 183.151 9.50708 182.231 9.50708H166.217C165.186 9.50708 164.403 9.76529 163.87 10.2799C163.336 10.7958 163.069 11.5503 163.069 12.5441C163.069 13.538 163.336 14.3026 163.87 14.8355C164.403 15.3697 165.186 15.6362 166.217 15.6362H176.63L164.671 29.9387C164.044 30.6756 163.63 31.4212 163.428 32.1752C163.225 32.9303 163.216 33.6388 163.4 34.3011C163.584 34.9641 163.953 35.5071 164.505 35.9302C165.057 36.3538 165.738 36.5653 166.548 36.5653H183.556C184.586 36.5653 185.369 36.2989 185.903 35.7647C186.436 35.2317 186.704 34.4672 186.704 33.4733C186.704 31.4118 185.654 30.3807 183.556 30.3807L183.557 30.3801Z" fill="#FFB000"/>
<path d="M95.8173 10.4115C95.0699 10.4115 94.3827 10.6692 93.8385 11.0993C92.8329 10.2827 91.7126 9.60678 90.4747 9.07322C88.7677 8.33759 86.9425 7.96948 84.9997 7.96948C83.0569 7.96948 81.266 8.33759 79.569 9.07322C77.8715 9.80885 76.3848 10.8151 75.1097 12.0902C73.8341 13.3659 72.8237 14.8525 72.078 16.5495C71.3323 18.2471 70.9595 20.0669 70.9595 22.0097C70.9595 23.9525 71.3317 25.7481 72.078 27.4552C72.8237 29.1622 73.8341 30.6541 75.1097 31.9292C76.3848 33.2049 77.8715 34.2106 79.569 34.9462C81.266 35.6818 83.0764 36.0499 84.9997 36.0499C86.432 36.0499 87.8004 35.8041 89.1057 35.3143C90.4103 34.8239 91.6222 34.1568 92.7407 33.3124C92.9174 33.9996 93.2707 34.5686 93.8001 35.0195C94.3301 35.4709 94.9777 35.6966 95.7429 35.6966C96.1943 35.6966 96.6209 35.6086 97.0233 35.4319C97.4251 35.2552 97.7737 35.0201 98.068 34.7252C98.3622 34.4304 98.5926 34.0877 98.7599 33.6953C98.9265 33.303 99.0098 32.8811 99.0098 32.4297V13.6052C99.0098 11.8414 97.5799 10.4115 95.8162 10.4115H95.8173ZM90.4162 27.4109C89.729 28.1075 88.9195 28.657 87.9877 29.0594C87.0553 29.4618 86.0597 29.6627 85.0003 29.6627C83.9409 29.6627 82.9494 29.4618 82.0276 29.0594C81.1053 28.6576 80.2958 28.1081 79.5992 27.4109C78.9025 26.7148 78.353 25.9 77.9506 24.9676C77.5483 24.0358 77.3474 23.0496 77.3474 22.0097C77.3474 20.9698 77.5483 19.9541 77.9506 19.0223C78.3524 18.0905 78.9019 17.281 79.5992 16.5938C80.2952 15.9072 81.11 15.3624 82.0424 14.9601C82.9742 14.5583 83.9604 14.3568 85.0003 14.3568C86.0402 14.3568 87.0559 14.5583 87.9877 14.9601C88.9195 15.3624 89.729 15.9072 90.4162 16.5938C91.1028 17.281 91.6423 18.0905 92.0352 19.0223C92.4275 19.9547 92.6237 20.9503 92.6237 22.0097C92.6237 23.0691 92.4275 24.0358 92.0352 24.9676C91.6423 25.9 91.1028 26.7142 90.4162 27.4109Z" fill="#2E6FFF"/>
<path d="M212.808 10.6464C212.06 10.6464 211.373 10.904 210.829 11.3342C209.823 10.5176 208.703 9.84164 207.465 9.30809C205.758 8.57245 203.933 8.20435 201.99 8.20435C200.047 8.20435 198.256 8.57245 196.559 9.30809C194.862 10.0437 193.375 11.05 192.1 12.3251C190.824 13.6008 189.814 15.0874 189.068 16.7844C188.323 18.4819 187.95 20.3018 187.95 22.2446C187.95 24.1874 188.322 25.983 189.068 27.69C189.814 29.3971 190.824 30.889 192.1 32.1641C193.375 33.4398 194.862 34.4454 196.559 35.1811C198.256 35.9167 200.067 36.2848 201.99 36.2848C203.422 36.2848 204.791 36.039 206.096 35.5492C207.401 35.0588 208.612 34.3917 209.731 33.5473C209.908 34.2345 210.261 34.8035 210.79 35.2543C211.32 35.7058 211.968 35.9315 212.733 35.9315C213.185 35.9315 213.611 35.8434 214.014 35.6668C214.415 35.4901 214.764 35.2549 215.058 34.9601C215.352 34.6652 215.583 34.3225 215.75 33.9302C215.917 33.5379 216 33.116 216 32.6646V13.8401C216 12.0763 214.57 10.6464 212.806 10.6464H212.808ZM207.406 27.6457C206.719 28.3423 205.91 28.8919 204.978 29.2942C204.046 29.6966 203.05 29.8975 201.991 29.8975C200.931 29.8975 199.94 29.6966 199.018 29.2942C198.096 28.8924 197.286 28.3429 196.589 27.6457C195.893 26.9497 195.343 26.1349 194.941 25.2025C194.538 24.2707 194.338 23.2845 194.338 22.2446C194.338 21.2046 194.538 20.1889 194.941 19.2571C195.343 18.3253 195.892 17.5159 196.589 16.8287C197.285 16.1421 198.1 15.5973 199.033 15.1949C199.964 14.7931 200.951 14.5916 201.991 14.5916C203.03 14.5916 204.046 14.7931 204.978 15.1949C205.91 15.5973 206.719 16.1421 207.406 16.8287C208.093 17.5159 208.633 18.3253 209.025 19.2571C209.418 20.1895 209.614 21.1851 209.614 22.2446C209.614 23.304 209.418 24.2707 209.025 25.2025C208.633 26.1349 208.093 26.9491 207.406 27.6457Z" fill="#FFB000"/>
<path d="M136.449 15.178C138.08 15.178 139.403 13.8553 139.403 12.2236C139.403 10.592 138.08 9.26929 136.449 9.26929C134.817 9.26929 133.494 10.592 133.494 12.2236C133.494 13.8553 134.817 15.178 136.449 15.178Z" fill="#2E6FFF"/>
<path d="M156.736 15.2261C158.367 15.2261 159.69 13.9034 159.69 12.2717C159.69 10.6401 158.367 9.31738 156.736 9.31738C155.104 9.31738 153.781 10.6401 153.781 12.2717C153.781 13.9034 155.104 15.2261 156.736 15.2261Z" fill="#2E6FFF"/>
</svg>
