<svg width="16" height="16" viewBox="0 0 16 16" fill="none" xmlns="http://www.w3.org/2000/svg">
<path d="M14.6666 4.62666V5.68666C14.6803 6.25902 14.5122 6.82099 14.1864 7.29176C13.8605 7.76253 13.3938 8.11786 12.8533 8.30666C12.6381 8.37716 12.4131 8.41316 12.1866 8.41333V3.87333H13.8533C14.0604 3.86784 14.2614 3.94358 14.4134 4.08435C14.5654 4.22512 14.6563 4.41976 14.6666 4.62666Z" stroke="white" stroke-miterlimit="10"/>
<path d="M3.83338 3.8741V8.41411C3.60693 8.41394 3.38192 8.37794 3.16672 8.30744C2.62248 8.12206 2.15141 7.76819 1.82178 7.29712C1.49215 6.82605 1.32109 6.26225 1.33338 5.68744V4.62744C1.33851 4.52321 1.36414 4.42102 1.40882 4.32672C1.4535 4.23241 1.51634 4.14785 1.59375 4.07787C1.67116 4.00789 1.76161 3.95387 1.85993 3.91891C1.95825 3.88394 2.0625 3.86872 2.16672 3.8741H3.83338Z" stroke="white" stroke-miterlimit="10"/>
<path d="M4.11331 1.66604C3.96798 1.66516 3.8239 1.69291 3.68929 1.74772C3.55469 1.80252 3.4322 1.88331 3.32882 1.98545C3.22543 2.0876 3.14318 2.2091 3.08676 2.34304C3.03034 2.47697 3.00085 2.62071 2.99997 2.76604V7.1327C2.99739 7.52635 3.04671 7.91861 3.14664 8.29937C3.4223 9.28739 3.99712 10.1658 4.79213 10.814C5.58714 11.4622 6.56334 11.8483 7.58664 11.9194V13.5327H5.29331C5.18722 13.5327 5.08548 13.5748 5.01046 13.6499C4.93545 13.7249 4.89331 13.8266 4.89331 13.9327C4.89331 14.0388 4.93545 14.1405 5.01046 14.2155C5.08548 14.2906 5.18722 14.3327 5.29331 14.3327H10.7066C10.8127 14.3327 10.9145 14.2906 10.9895 14.2155C11.0645 14.1405 11.1066 14.0388 11.1066 13.9327C11.1066 13.8266 11.0645 13.7249 10.9895 13.6499C10.9145 13.5748 10.8127 13.5327 10.7066 13.5327H8.41331V11.9194C9.4366 11.8483 10.4128 11.4622 11.2078 10.814C12.0028 10.1658 12.5776 9.28739 12.8533 8.29937C12.9532 7.91861 13.0026 7.52635 13 7.1327V2.76604C12.9991 2.62071 12.9696 2.47697 12.9132 2.34304C12.8568 2.2091 12.7745 2.0876 12.6711 1.98545C12.5677 1.88331 12.4453 1.80252 12.3107 1.74772C12.1761 1.69291 12.032 1.66516 11.8866 1.66604H4.11331ZM9.99997 5.99937L9.33331 6.66604C9.3038 6.69656 9.28181 6.73354 9.26909 6.77404C9.25636 6.81454 9.25324 6.85745 9.25997 6.89937L9.41997 7.86604C9.4257 7.91436 9.41841 7.96334 9.39888 8.00791C9.37934 8.05248 9.34826 8.09102 9.30885 8.11956C9.26944 8.1481 9.22312 8.16561 9.17468 8.17026C9.12624 8.17491 9.07743 8.16655 9.03331 8.14604L8.15331 7.6927C8.11642 7.67286 8.07519 7.66248 8.03331 7.66248C7.99142 7.66248 7.95019 7.67286 7.91331 7.6927L7.03331 8.14604C6.98936 8.16902 6.93988 8.1793 6.89041 8.17572C6.84095 8.17213 6.79347 8.15482 6.7533 8.12573C6.71313 8.09664 6.68187 8.05693 6.66303 8.01106C6.64419 7.96518 6.63851 7.91496 6.64664 7.86604L6.80664 6.89937C6.81338 6.85745 6.81026 6.81454 6.79753 6.77404C6.7848 6.73354 6.76281 6.69656 6.73331 6.66604L5.99997 5.99937C5.96423 5.96547 5.93884 5.92212 5.92678 5.87436C5.91472 5.8266 5.91648 5.77639 5.93184 5.72959C5.94721 5.68278 5.97556 5.64131 6.01359 5.60999C6.05162 5.57868 6.09776 5.55881 6.14664 5.5527L7.12664 5.40604C7.16855 5.3998 7.20843 5.3839 7.24314 5.35961C7.27785 5.33531 7.30643 5.30328 7.32664 5.26604L7.76664 4.38604C7.79015 4.34291 7.82484 4.30691 7.86708 4.28183C7.90931 4.25675 7.95752 4.24351 8.00664 4.24351C8.05576 4.24351 8.10397 4.25675 8.14621 4.28183C8.18844 4.30691 8.22313 4.34291 8.24664 4.38604L8.66664 5.23937C8.68685 5.27661 8.71543 5.30864 8.75014 5.33294C8.78485 5.35724 8.82473 5.37313 8.86664 5.37937L9.84664 5.52604C9.90239 5.52501 9.957 5.54194 10.0024 5.57432C10.0478 5.6067 10.0816 5.65282 10.0988 5.70587C10.1159 5.75891 10.1156 5.81608 10.0978 5.86893C10.08 5.92178 10.0457 5.96751 9.99997 5.99937V5.99937Z" fill="white"/>
</svg>
