<svg width="111" height="90" viewBox="0 0 111 90" fill="none" xmlns="http://www.w3.org/2000/svg">
<path d="M104.271 28.837C104.481 27.507 103.371 26.497 102.531 27.267C95.9009 33.347 91.3609 35.607 83.3709 38.727L85.5309 54.637C95.6109 51.607 103.301 47.097 107.061 41.807L102.541 39.647L104.271 28.837Z" fill="#4675F0"/>
<path d="M109.251 42.8561L107.971 42.2461C104.061 47.8161 96.0809 52.5461 85.6609 55.7061L86.2309 59.8961C95.6909 56.2061 101.401 53.1761 109.521 45.5461C110.271 44.8361 110.121 43.2861 109.261 42.8661L109.251 42.8561Z" fill="#4675F0"/>
<path d="M107.971 42.2466L107.051 41.8066C103.291 47.0966 95.5909 51.6066 85.5209 54.6366L85.6609 55.7066C96.0809 52.5566 104.051 47.8266 107.971 42.2466Z" fill="white"/>
<path d="M7.48088 27.267C6.64088 26.497 5.52087 27.507 5.74088 28.837L7.47088 39.647L3.74088 41.427C7.28088 46.697 14.7209 51.217 24.5309 54.317L26.6409 38.717C18.6609 35.607 14.1009 33.347 7.48088 27.267Z" fill="#4675F0"/>
<path d="M2.81087 41.877L0.750872 42.867C-0.119128 43.277 -0.269128 44.837 0.490872 45.547C8.61087 53.187 14.3209 56.207 23.7809 59.897L24.3909 55.407C14.2209 52.177 6.51087 47.427 2.81087 41.877Z" fill="#4675F0"/>
<path d="M3.73088 41.4277L2.81088 41.8677C6.51088 47.4177 14.2209 52.1677 24.3809 55.3877L24.5309 54.3177C14.7109 51.2277 7.28088 46.7077 3.73088 41.4277Z" fill="white"/>
<g filter="url(#filter0_d_788_9646)">
<path d="M55 78C75.4345 78 92 61.4345 92 41C92 20.5655 75.4345 4 55 4C34.5655 4 18 20.5655 18 41C18 61.4345 34.5655 78 55 78Z" fill="url(#paint0_linear_788_9646)"/>
<path opacity="0.36" d="M55 4C75.43 4 92 20.57 92 41H18C18 20.57 34.57 4 55 4Z" fill="white"/>
<g filter="url(#filter1_d_788_9646)">
<path d="M55 71C71.5685 71 85 57.5685 85 41C85 24.4315 71.5685 11 55 11C38.4315 11 25 24.4315 25 41C25 57.5685 38.4315 71 55 71Z" fill="#FFDC4A"/>
</g>
<path d="M63.17 56.3996C62.82 56.3996 62.48 56.3096 62.16 56.1396L55.01 52.2696L47.86 56.1396C47.54 56.3096 47.2 56.3996 46.85 56.3996C46.23 56.3996 45.63 56.1196 45.21 55.6296C44.78 55.1196 44.59 54.4396 44.69 53.7696L46 45.4396L40.26 39.5096C39.66 38.8896 39.46 37.9896 39.74 37.1596C40.01 36.3496 40.66 35.7896 41.48 35.6596L49.45 34.3896L53.07 26.8596C53.44 26.0896 54.19 25.5996 55.03 25.5996C55.87 25.5996 56.62 26.0796 56.99 26.8596L60.61 34.3896L68.58 35.6596C69.4 35.7896 70.05 36.3496 70.32 37.1596C70.6 37.9896 70.4 38.8896 69.8 39.5096L64.06 45.4396L65.37 53.7696C65.48 54.4496 65.29 55.1296 64.85 55.6296C64.43 56.1196 63.83 56.3996 63.21 56.3996H63.17Z" fill="white"/>
<path d="M55 25.9992C55.63 25.9992 56.27 26.3392 56.6 27.0292L60.31 34.7492L68.48 36.0492C69.93 36.2792 70.51 38.1492 69.47 39.2292L63.59 45.2992L64.93 53.8292C65.12 55.0292 64.2 56.0092 63.17 56.0092C62.9 56.0092 62.62 55.9392 62.35 55.7992L55.01 51.8292L47.67 55.7992C47.4 55.9492 47.12 56.0092 46.85 56.0092C45.81 56.0092 44.9 55.0392 45.09 53.8292L46.43 45.2992L40.55 39.2292C39.5 38.1492 40.08 36.2892 41.54 36.0492L49.71 34.7492L53.42 27.0292C53.75 26.3392 54.38 25.9992 55.02 25.9992H55ZM55.02 25.1992C54.03 25.1992 53.14 25.7692 52.7 26.6792L49.17 34.0192L41.41 35.2492C40.46 35.3992 39.67 36.0792 39.36 37.0192C39.04 37.9892 39.27 39.0492 39.98 39.7692L45.58 45.5592L44.3 53.6892C44.18 54.4792 44.4 55.2792 44.91 55.8792C45.41 56.4592 46.12 56.7892 46.86 56.7892C47.28 56.7892 47.68 56.6892 48.06 56.4792L55.02 52.7192L61.98 56.4792C62.36 56.6792 62.76 56.7892 63.18 56.7892C63.92 56.7892 64.63 56.4592 65.13 55.8792C65.64 55.2792 65.86 54.4892 65.74 53.6892L64.46 45.5592L70.06 39.7692C70.76 39.0392 71 37.9892 70.68 37.0192C70.37 36.0792 69.58 35.3992 68.63 35.2492L60.87 34.0192L57.34 26.6792C56.9 25.7592 56.01 25.1992 55.02 25.1992Z" fill="#FFD261"/>
<path d="M77.5 17.7891L79.09 20.6991L82 22.2891L79.09 23.8791L77.5 26.7891L75.91 23.8791L73 22.2891L75.91 20.6991L77.5 17.7891Z" fill="white"/>
<path d="M28.59 49.6992L30.18 52.6092L33.09 54.1992L30.18 55.7892L28.59 58.6992L27 55.7892L24.09 54.1992L27 52.6092L28.59 49.6992Z" fill="white"/>
</g>
<defs>
<filter id="filter0_d_788_9646" x="10" y="0" width="90" height="90" filterUnits="userSpaceOnUse" color-interpolation-filters="sRGB">
<feFlood flood-opacity="0" result="BackgroundImageFix"/>
<feColorMatrix in="SourceAlpha" type="matrix" values="0 0 0 0 0 0 0 0 0 0 0 0 0 0 0 0 0 0 127 0" result="hardAlpha"/>
<feOffset dy="4"/>
<feGaussianBlur stdDeviation="4"/>
<feComposite in2="hardAlpha" operator="out"/>
<feColorMatrix type="matrix" values="0 0 0 0 1 0 0 0 0 0.733333 0 0 0 0 0.0541667 0 0 0 0.55 0"/>
<feBlend mode="normal" in2="BackgroundImageFix" result="effect1_dropShadow_788_9646"/>
<feBlend mode="normal" in="SourceGraphic" in2="effect1_dropShadow_788_9646" result="shape"/>
</filter>
<filter id="filter1_d_788_9646" x="25" y="11" width="60" height="61" filterUnits="userSpaceOnUse" color-interpolation-filters="sRGB">
<feFlood flood-opacity="0" result="BackgroundImageFix"/>
<feColorMatrix in="SourceAlpha" type="matrix" values="0 0 0 0 0 0 0 0 0 0 0 0 0 0 0 0 0 0 127 0" result="hardAlpha"/>
<feOffset dy="1"/>
<feComposite in2="hardAlpha" operator="out"/>
<feColorMatrix type="matrix" values="0 0 0 0 1 0 0 0 0 0.750333 0 0 0 0 0.108333 0 0 0 1 0"/>
<feBlend mode="normal" in2="BackgroundImageFix" result="effect1_dropShadow_788_9646"/>
<feBlend mode="normal" in="SourceGraphic" in2="effect1_dropShadow_788_9646" result="shape"/>
</filter>
<linearGradient id="paint0_linear_788_9646" x1="55" y1="4" x2="55" y2="78" gradientUnits="userSpaceOnUse">
<stop stop-color="#FFDC4B"/>
<stop offset="0.552083" stop-color="#FFD629"/>
<stop offset="1" stop-color="#FFC700"/>
<stop offset="1" stop-color="#FFC700"/>
</linearGradient>
</defs>
</svg>
