<svg width="16" height="16" viewBox="0 0 16 16" fill="none" xmlns="http://www.w3.org/2000/svg">
<path d="M5.71999 8.49268C7.59408 8.49268 9.11333 6.96448 9.11333 5.07935C9.11333 3.19422 7.59408 1.66602 5.71999 1.66602C3.84591 1.66602 2.32666 3.19422 2.32666 5.07935C2.32666 6.96448 3.84591 8.49268 5.71999 8.49268Z" fill="white"/>
<path d="M5.64666 8.87306C4.49338 8.87446 3.37046 9.24279 2.44041 9.92474C1.51036 10.6067 0.82143 11.5669 0.473324 12.6664C0.41336 12.8603 0.400123 13.0657 0.434694 13.2657C0.469265 13.4657 0.550663 13.6547 0.672239 13.8172C0.793814 13.9797 0.952117 14.1112 1.13421 14.2009C1.31631 14.2905 1.51704 14.3358 1.71999 14.3331H10.3867C10.4795 14.3334 10.5714 14.3144 10.6564 14.2772C10.7415 14.24 10.8179 14.1855 10.8806 14.1171C10.9434 14.0487 10.9912 13.9679 11.0209 13.88C11.0506 13.792 11.0617 13.6989 11.0533 13.6064C10.8815 12.295 10.2379 11.0912 9.24275 10.22C8.24764 9.34878 6.96923 8.86996 5.64666 8.87306V8.87306Z" fill="white"/>
<path d="M10.3733 8.87266C9.79097 8.83171 9.20703 8.92523 8.66663 9.14599C9.59996 9.66599 12 11.3327 11.6 14.3327H14.2666C14.4719 14.3393 14.6758 14.297 14.8615 14.2092C15.0471 14.1214 15.2092 13.9907 15.3343 13.8278C15.4594 13.6649 15.5439 13.4746 15.5808 13.2725C15.6177 13.0705 15.606 12.8626 15.5466 12.666C15.1976 11.5671 14.5084 10.6074 13.5786 9.92563C12.6488 9.24382 11.5263 8.87509 10.3733 8.87266V8.87266Z" fill="white"/>
<path d="M10.4933 3.03321C9.98524 3.03381 9.48796 3.17953 9.05994 3.4532C9.42977 4.10411 9.56972 4.86055 9.45725 5.60069C9.34478 6.34082 8.98644 7.02155 8.43994 7.53321C8.73818 7.8778 9.11822 8.14194 9.54517 8.30136C9.97211 8.46078 10.4323 8.51037 10.8834 8.44557C11.3345 8.38077 11.7621 8.20367 12.1269 7.93052C12.4917 7.65738 12.782 7.29695 12.9712 6.88234C13.1604 6.46773 13.2424 6.01222 13.2096 5.55767C13.1768 5.10311 13.0304 4.66408 12.7837 4.28088C12.537 3.89768 12.198 3.58261 11.7978 3.3646C11.3976 3.1466 10.949 3.03264 10.4933 3.03321V3.03321Z" fill="white"/>
</svg>
