<svg width="24" height="24" viewBox="0 0 24 24" fill="none" xmlns="http://www.w3.org/2000/svg">
<path d="M22.0003 6.93999V8.52999C22.0208 9.38853 21.7686 10.2315 21.2798 10.9376C20.7911 11.6438 20.091 12.1768 19.2803 12.46C18.9575 12.5657 18.62 12.6197 18.2803 12.62V5.80999H20.7803C21.0909 5.80176 21.3924 5.91537 21.6204 6.12653C21.8484 6.33768 21.9847 6.62964 22.0003 6.93999V6.93999Z" stroke="#4675F0" stroke-width="2" stroke-miterlimit="10"/>
<path d="M5.74995 5.81018V12.6202C5.41027 12.6199 5.07276 12.5659 4.74995 12.4602C3.93359 12.1821 3.22699 11.6513 2.73254 10.9447C2.2381 10.2381 1.98151 9.3924 1.99995 8.53018V6.94018C2.00764 6.78384 2.04609 6.63055 2.1131 6.4891C2.18012 6.34764 2.27439 6.2208 2.3905 6.11583C2.50662 6.01086 2.6423 5.92984 2.78978 5.87739C2.93726 5.82494 3.09363 5.8021 3.24995 5.81018H5.74995Z" stroke="#4675F0" stroke-width="2" stroke-miterlimit="10"/>
<path d="M6.17014 2.50003C5.95215 2.49871 5.73603 2.54035 5.53412 2.62256C5.33222 2.70476 5.14848 2.82594 4.99341 2.97915C4.83833 3.13237 4.71496 3.31463 4.63032 3.51553C4.54569 3.71643 4.50145 3.93203 4.50014 4.15003V10.7C4.49627 11.2905 4.57024 11.8789 4.72014 12.45C5.13364 13.9321 5.99586 15.2497 7.18838 16.222C8.38089 17.1943 9.8452 17.7735 11.3801 17.88V20.3H7.94014C7.78101 20.3 7.6284 20.3632 7.51588 20.4758C7.40336 20.5883 7.34014 20.7409 7.34014 20.9C7.34014 21.0592 7.40336 21.2118 7.51588 21.3243C7.6284 21.4368 7.78101 21.5 7.94014 21.5H16.0601C16.2193 21.5 16.3719 21.4368 16.4844 21.3243C16.5969 21.2118 16.6601 21.0592 16.6601 20.9C16.6601 20.7409 16.5969 20.5883 16.4844 20.4758C16.3719 20.3632 16.2193 20.3 16.0601 20.3H12.6201V17.88C14.1551 17.7735 15.6194 17.1943 16.8119 16.222C18.0044 15.2497 18.8667 13.9321 19.2801 12.45C19.43 11.8789 19.504 11.2905 19.5001 10.7V4.15003C19.4988 3.93203 19.4546 3.71643 19.37 3.51553C19.2853 3.31463 19.162 3.13237 19.0069 2.97915C18.8518 2.82594 18.6681 2.70476 18.4662 2.62256C18.2643 2.54035 18.0481 2.49871 17.8301 2.50003H6.17014ZM15.0001 9.00003L14.0001 10C13.9559 10.0458 13.9229 10.1013 13.9038 10.162C13.8847 10.2228 13.88 10.2872 13.8901 10.35L14.1301 11.8C14.1387 11.8725 14.1278 11.946 14.0985 12.0128C14.0692 12.0797 14.0226 12.1375 13.9635 12.1803C13.9043 12.2231 13.8349 12.2494 13.7622 12.2564C13.6895 12.2633 13.6163 12.2508 13.5501 12.22L12.2301 11.54C12.1748 11.5103 12.113 11.4947 12.0501 11.4947C11.9873 11.4947 11.9255 11.5103 11.8701 11.54L10.5501 12.22C10.4842 12.2545 10.41 12.2699 10.3358 12.2645C10.2616 12.2592 10.1904 12.2332 10.1301 12.1896C10.0699 12.1459 10.023 12.0864 9.99472 12.0176C9.96646 11.9487 9.95795 11.8734 9.97014 11.8L10.2101 10.35C10.2202 10.2872 10.2156 10.2228 10.1965 10.162C10.1774 10.1013 10.1444 10.0458 10.1001 10L9.00014 9.00003C8.94652 8.94919 8.90845 8.88416 8.89036 8.81251C8.87226 8.74087 8.8749 8.66556 8.89795 8.59535C8.921 8.52515 8.96352 8.46294 9.02057 8.41596C9.07761 8.36899 9.14682 8.33919 9.22014 8.33003L10.6901 8.11003C10.753 8.10067 10.8128 8.07683 10.8649 8.04038C10.917 8.00394 10.9598 7.95589 10.9901 7.90003L11.6501 6.58003C11.6854 6.51534 11.7374 6.46134 11.8008 6.42372C11.8641 6.3861 11.9365 6.36624 12.0101 6.36624C12.0838 6.36624 12.1561 6.3861 12.2195 6.42372C12.2828 6.46134 12.3349 6.51534 12.3701 6.58003L13.0001 7.86003C13.0305 7.91589 13.0733 7.96394 13.1254 8.00038C13.1775 8.03683 13.2373 8.06067 13.3001 8.07003L14.7701 8.29003C14.8538 8.2885 14.9357 8.31389 15.0038 8.36246C15.0719 8.41103 15.1225 8.4802 15.1483 8.55978C15.1741 8.63935 15.1736 8.7251 15.1469 8.80437C15.1202 8.88364 15.0688 8.95224 15.0001 9.00003Z" fill="#4675F0"/>
</svg>
