<svg width="24" height="24" viewBox="0 0 24 24" fill="none" xmlns="http://www.w3.org/2000/svg">
<path d="M22.0001 10.7698C22.0001 10.5222 21.9475 10.2773 21.8458 10.0515C21.744 9.82566 21.5956 9.624 21.4101 9.45983L17.0501 5.68983L13.0501 2.37983C12.7562 2.13232 12.3844 1.99658 12.0001 1.99658C11.6159 1.99658 11.244 2.13232 10.9501 2.37983L6.95012 5.68983L2.59012 9.45983C2.40544 9.62247 2.25736 9.82244 2.15566 10.0465C2.05395 10.2706 2.00094 10.5137 2.00012 10.7598V20.2898C1.99748 20.5118 2.03858 20.732 2.12108 20.9381C2.20358 21.1442 2.32586 21.3319 2.48093 21.4907C2.63601 21.6495 2.82085 21.7762 3.02489 21.8636C3.22893 21.9509 3.44818 21.9972 3.67012 21.9998H9.50012V16.6098C9.49745 16.1633 9.67158 15.7339 9.98449 15.4154C10.2974 15.0969 10.7236 14.9151 11.1701 14.9098H12.8301C13.2766 14.9151 13.7028 15.0969 14.0158 15.4154C14.3287 15.7339 14.5028 16.1633 14.5001 16.6098V21.9998H20.3301C20.5521 21.9972 20.7713 21.9509 20.9754 21.8636C21.1794 21.7762 21.3642 21.6495 21.5193 21.4907C21.6744 21.3319 21.7967 21.1442 21.8792 20.9381C21.9617 20.732 22.0028 20.5118 22.0001 20.2898V10.7698Z" fill="#D1D5DA"/>
</svg>
