<svg width="24" height="24" viewBox="0 0 24 24" fill="none" xmlns="http://www.w3.org/2000/svg">
<path d="M9.63 2H3.65C2.73873 2 2 2.73873 2 3.65V9.63C2 10.5413 2.73873 11.28 3.65 11.28H9.63C10.5413 11.28 11.28 10.5413 11.28 9.63V3.65C11.28 2.73873 10.5413 2 9.63 2Z" fill="#D1D5DA"/>
<path d="M20.3497 2H14.3697C13.4585 2 12.7197 2.73873 12.7197 3.65V9.63C12.7197 10.5413 13.4585 11.28 14.3697 11.28H20.3497C21.261 11.28 21.9997 10.5413 21.9997 9.63V3.65C21.9997 2.73873 21.261 2 20.3497 2Z" fill="#D1D5DA"/>
<path d="M9.63 12.7202H3.65C2.73873 12.7202 2 13.4589 2 14.3702V20.3502C2 21.2615 2.73873 22.0002 3.65 22.0002H9.63C10.5413 22.0002 11.28 21.2615 11.28 20.3502V14.3702C11.28 13.4589 10.5413 12.7202 9.63 12.7202Z" fill="#D1D5DA"/>
<path d="M20.3497 12.7202H14.3697C13.4585 12.7202 12.7197 13.4589 12.7197 14.3702V20.3502C12.7197 21.2615 13.4585 22.0002 14.3697 22.0002H20.3497C21.261 22.0002 21.9997 21.2615 21.9997 20.3502V14.3702C21.9997 13.4589 21.261 12.7202 20.3497 12.7202Z" fill="#D1D5DA"/>
</svg>
