<svg width="24" height="24" viewBox="0 0 24 24" fill="none" xmlns="http://www.w3.org/2000/svg">
<path d="M19 2H5.00003C4.4696 2 3.96089 2.21071 3.58582 2.58579C3.21074 2.96086 3.00003 3.46957 3.00003 4V19.73C2.99837 19.9949 3.06332 20.2559 3.1889 20.4891C3.31448 20.7223 3.49666 20.9201 3.71871 21.0645C3.94075 21.2089 4.19553 21.2951 4.45962 21.3153C4.72371 21.3355 4.98863 21.289 5.23003 21.18L6.70003 20.53C6.95236 20.4199 7.22471 20.363 7.50003 20.363C7.77535 20.363 8.0477 20.4199 8.30003 20.53L9.77003 21.18L11.18 21.82C11.4379 21.9359 11.7173 21.9958 12 21.9958C12.2827 21.9958 12.5622 21.9359 12.82 21.82L14.23 21.18L15.7 20.53C15.9524 20.4199 16.2247 20.363 16.5 20.363C16.7753 20.363 17.0477 20.4199 17.3 20.53L18.77 21.18C19.0114 21.289 19.2764 21.3355 19.5404 21.3153C19.8045 21.2951 20.0593 21.2089 20.2814 21.0645C20.5034 20.9201 20.6856 20.7223 20.8112 20.4891C20.9367 20.2559 21.0017 19.9949 21 19.73V4C21 3.46957 20.7893 2.96086 20.4142 2.58579C20.0392 2.21071 19.5305 2 19 2ZM16.87 11.37H15.53L14.59 13.73C14.5338 13.8452 14.4452 13.9416 14.3351 14.0073C14.225 14.073 14.0981 14.1052 13.97 14.1C13.8405 14.1059 13.712 14.0741 13.6002 14.0084C13.4883 13.9428 13.398 13.846 13.34 13.73L12.4 11.37L12 10.37L11.6 11.37L10.66 13.73C10.6021 13.846 10.5117 13.9428 10.3999 14.0084C10.2881 14.0741 10.1596 14.1059 10.03 14.1C9.90192 14.1052 9.77506 14.073 9.66495 14.0073C9.55485 13.9416 9.46626 13.8452 9.41003 13.73L8.47003 11.37H7.13003C6.97508 11.3811 6.82202 11.3306 6.70407 11.2295C6.58612 11.1284 6.5128 10.9848 6.50003 10.83C6.51282 10.6744 6.58578 10.5299 6.70342 10.4272C6.82106 10.3245 6.9741 10.2717 7.13003 10.28H8.00003L7.44003 8.82C7.41761 8.74704 7.41091 8.67015 7.42037 8.59441C7.42984 8.51867 7.45525 8.4458 7.49494 8.3806C7.53463 8.31539 7.58768 8.25935 7.65062 8.21615C7.71355 8.17296 7.78492 8.14359 7.86003 8.13C8.0163 8.08053 8.18497 8.08747 8.33664 8.1496C8.48832 8.21173 8.61338 8.32512 8.69003 8.47L9.41003 10.28L9.85003 11.37L10.03 11.83L10.22 11.37L10.66 10.28L11.38 8.48C11.417 8.39415 11.4732 8.31794 11.5443 8.25725C11.6154 8.19657 11.6994 8.15303 11.79 8.13C11.9462 8.07847 12.1156 8.0844 12.2678 8.14674C12.42 8.20908 12.5449 8.32372 12.62 8.47L13.34 10.28L13.78 11.37L13.97 11.83L14.15 11.37L14.59 10.28L15.31 8.47C15.3867 8.32512 15.5117 8.21173 15.6634 8.1496C15.8151 8.08747 15.9838 8.08053 16.14 8.13C16.2151 8.14359 16.2865 8.17296 16.3494 8.21615C16.4124 8.25935 16.4654 8.31539 16.5051 8.3806C16.5448 8.4458 16.5702 8.51867 16.5797 8.59441C16.5892 8.67015 16.5825 8.74704 16.56 8.82L16 10.28H16.9C17.056 10.2717 17.209 10.3245 17.3266 10.4272C17.4443 10.5299 17.5172 10.6744 17.53 10.83C17.5239 10.9095 17.5017 10.9868 17.4648 11.0575C17.4279 11.1281 17.3771 11.1906 17.3154 11.241C17.2537 11.2915 17.1825 11.3289 17.1059 11.3511C17.0294 11.3733 16.9491 11.3797 16.87 11.37Z" fill="#D1D5DA"/>
</svg>
