<svg width="24" height="24" viewBox="0 0 24 24" fill="none" xmlns="http://www.w3.org/2000/svg">
<path d="M8.58023 12.74C11.3914 12.74 13.6702 10.4477 13.6702 7.62C13.6702 4.7923 11.3914 2.5 8.58023 2.5C5.76911 2.5 3.49023 4.7923 3.49023 7.62C3.49023 10.4477 5.76911 12.74 8.58023 12.74Z" fill="#D1D5DA"/>
<path d="M8.47017 13.3101C6.74025 13.3122 5.05587 13.8647 3.6608 14.8876C2.26572 15.9105 1.23233 17.3508 0.710169 19.0001C0.620224 19.2909 0.600368 19.599 0.652224 19.899C0.704081 20.199 0.826178 20.4825 1.00854 20.7263C1.1909 20.9701 1.42836 21.1673 1.7015 21.3018C1.97465 21.4362 2.27574 21.5042 2.58017 21.5001H15.5802C15.7194 21.5006 15.8573 21.4721 15.9848 21.4163C16.1124 21.3605 16.227 21.2787 16.3211 21.1761C16.4152 21.0735 16.4869 20.9524 16.5315 20.8205C16.5761 20.6885 16.5927 20.5488 16.5802 20.4101C16.3225 18.443 15.357 16.6372 13.8643 15.3304C12.3716 14.0237 10.454 13.3054 8.47017 13.3101Z" fill="#D1D5DA"/>
<path d="M15.56 13.31C14.6865 13.2485 13.8106 13.3888 13 13.72C14.4 14.5 18 17 17.4 21.5H21.4C21.7079 21.51 22.0137 21.4465 22.2922 21.3148C22.5707 21.1831 22.8139 20.987 23.0015 20.7426C23.1891 20.4983 23.3159 20.2128 23.3713 19.9098C23.4267 19.6067 23.4091 19.2949 23.32 19C22.7965 17.3516 21.7627 15.9121 20.368 14.8894C18.9732 13.8667 17.2895 13.3136 15.56 13.31Z" fill="#D1D5DA"/>
<path d="M15.7402 4.54981C14.9781 4.55072 14.2322 4.76929 13.5902 5.17981C14.1449 6.15616 14.3548 7.29083 14.1861 8.40103C14.0174 9.51123 13.4799 10.5323 12.6602 11.2998C13.1075 11.8167 13.6776 12.2129 14.318 12.452C14.9584 12.6912 15.6486 12.7655 16.3253 12.6684C17.002 12.5712 17.6433 12.3055 18.1906 11.8958C18.7378 11.4861 19.1733 10.9454 19.457 10.3235C19.7408 9.70159 19.8638 9.01834 19.8146 8.3365C19.7655 7.65467 19.5458 6.99611 19.1758 6.42132C18.8058 5.84652 18.2972 5.37392 17.6969 5.04691C17.0966 4.7199 16.4238 4.54896 15.7402 4.54981Z" fill="#D1D5DA"/>
</svg>
