<svg width="18" height="20" viewBox="0 0 18 20" fill="none" xmlns="http://www.w3.org/2000/svg">
<path d="M16 0H2.00003C1.4696 0 0.96089 0.210714 0.585817 0.585786C0.210745 0.960859 3.1085e-05 1.46957 3.1085e-05 2V17.73C-0.00163011 17.9949 0.0633151 18.2559 0.188896 18.4891C0.314477 18.7223 0.496665 18.9201 0.71871 19.0645C0.940754 19.2089 1.19553 19.2951 1.45962 19.3153C1.72371 19.3355 1.98863 19.289 2.23003 19.18L3.70003 18.53C3.95236 18.4199 4.22471 18.363 4.50003 18.363C4.77535 18.363 5.0477 18.4199 5.30003 18.53L6.77003 19.18L8.18003 19.82C8.43787 19.9359 8.71734 19.9958 9.00003 19.9958C9.28272 19.9958 9.5622 19.9359 9.82003 19.82L11.23 19.18L12.7 18.53C12.9524 18.4199 13.2247 18.363 13.5 18.363C13.7753 18.363 14.0477 18.4199 14.3 18.53L15.77 19.18C16.0114 19.289 16.2764 19.3355 16.5404 19.3153C16.8045 19.2951 17.0593 19.2089 17.2814 19.0645C17.5034 18.9201 17.6856 18.7223 17.8112 18.4891C17.9367 18.2559 18.0017 17.9949 18 17.73V2C18 1.46957 17.7893 0.960859 17.4142 0.585786C17.0392 0.210714 16.5305 0 16 0ZM13.87 9.37H12.53L11.59 11.73C11.5338 11.8452 11.4452 11.9416 11.3351 12.0073C11.225 12.073 11.0981 12.1052 10.97 12.1C10.8405 12.1059 10.712 12.0741 10.6002 12.0084C10.4883 11.9428 10.398 11.846 10.34 11.73L9.40003 9.37L9.00003 8.37L8.60003 9.37L7.66003 11.73C7.6021 11.846 7.51173 11.9428 7.3999 12.0084C7.28807 12.0741 7.15958 12.1059 7.03003 12.1C6.90192 12.1052 6.77506 12.073 6.66495 12.0073C6.55485 11.9416 6.46626 11.8452 6.41003 11.73L5.47003 9.37H4.13003C3.97508 9.38106 3.82202 9.33056 3.70407 9.22946C3.58612 9.12836 3.5128 8.98482 3.50003 8.83C3.51282 8.67437 3.58578 8.52985 3.70342 8.42716C3.82106 8.32446 3.9741 8.27167 4.13003 8.28H5.00003L4.44003 6.82C4.41761 6.74704 4.41091 6.67015 4.42037 6.59441C4.42984 6.51867 4.45525 6.4458 4.49494 6.3806C4.53463 6.31539 4.58768 6.25935 4.65062 6.21615C4.71355 6.17296 4.78492 6.14359 4.86003 6.13C5.0163 6.08053 5.18497 6.08747 5.33664 6.1496C5.48832 6.21173 5.61338 6.32512 5.69003 6.47L6.41003 8.28L6.85003 9.37L7.03003 9.83L7.22003 9.37L7.66003 8.28L8.38003 6.48C8.41699 6.39415 8.47318 6.31794 8.54427 6.25725C8.61536 6.19657 8.69944 6.15303 8.79003 6.13C8.9462 6.07847 9.11564 6.0844 9.26781 6.14674C9.41999 6.20908 9.5449 6.32372 9.62003 6.47L10.34 8.28L10.78 9.37L10.97 9.83L11.15 9.37L11.59 8.28L12.31 6.47C12.3867 6.32512 12.5117 6.21173 12.6634 6.1496C12.8151 6.08747 12.9838 6.08053 13.14 6.13C13.2151 6.14359 13.2865 6.17296 13.3494 6.21615C13.4124 6.25935 13.4654 6.31539 13.5051 6.3806C13.5448 6.4458 13.5702 6.51867 13.5797 6.59441C13.5892 6.67015 13.5825 6.74704 13.56 6.82L13 8.28H13.9C14.056 8.27167 14.209 8.32446 14.3266 8.42716C14.4443 8.52985 14.5172 8.67437 14.53 8.83C14.5239 8.90945 14.5017 8.98683 14.4648 9.05748C14.4279 9.12812 14.3771 9.19055 14.3154 9.24102C14.2537 9.29148 14.1825 9.32893 14.1059 9.35109C14.0294 9.37326 13.9491 9.37969 13.87 9.37Z" fill="#4675F0"/>
</svg>
