<svg width="24" height="24" viewBox="0 0 24 24" fill="none" xmlns="http://www.w3.org/2000/svg">
<path d="M20.3208 2H3.66917C2.74963 2 2 2.75 2 3.68V19.43C2 20.7 3.42929 21.45 4.46877 20.73L6.08796 19.66C6.63768 19.29 7.35732 19.29 7.90705 19.66L9.52624 20.73L10.8656 21.65C11.5452 22.12 12.4548 22.12 13.1344 21.65L14.4738 20.73L16.093 19.66C16.6427 19.29 17.3623 19.29 17.912 19.66L19.5312 20.73C20.5807 21.45 22 20.7 22 19.43V3.68C22 2.76 21.2504 2 20.3308 2H20.3208ZM16.8626 10.81H15.5232L14.5837 13.17C14.4938 13.39 14.2439 13.54 13.964 13.54C13.6842 13.54 13.4343 13.39 13.3443 13.17L12.4048 10.81L12.005 9.81L11.6052 10.81L10.6657 13.17C10.5757 13.39 10.3258 13.54 10.046 13.54C9.76612 13.54 9.51624 13.39 9.42629 13.17L8.48676 10.81H7.14743C6.7976 10.81 6.51774 10.56 6.51774 10.26C6.51774 9.96 6.7976 9.71 7.14743 9.71H8.04698L7.46727 8.25C7.35732 7.96 7.53723 7.66 7.87706 7.56C8.22689 7.47 8.58671 7.62 8.70665 7.9L9.42629 9.71L9.86607 10.8L10.046 11.26L10.2259 10.8L10.6657 9.71L11.3853 7.9C11.4453 7.74 11.5952 7.61 11.7951 7.55C12.1449 7.46 12.5047 7.61 12.6247 7.89L13.3443 9.7L13.7841 10.79L13.964 11.25L14.1439 10.79L14.5837 9.7L15.3033 7.89C15.4233 7.61 15.7931 7.45 16.1329 7.55C16.4728 7.65 16.6527 7.95 16.5427 8.24L15.963 9.7H16.8626C17.2124 9.7 17.4923 9.95 17.4923 10.25C17.4923 10.55 17.2124 10.8 16.8626 10.8V10.81Z" fill="#4675F0"/>
</svg>
