<svg width="24" height="24" viewBox="0 0 24 24" fill="none" xmlns="http://www.w3.org/2000/svg">
<path d="M21 22.0004H2.99995C2.89623 22.0125 2.79112 22.0025 2.69153 21.9711C2.59194 21.9397 2.50012 21.8876 2.42211 21.8182C2.3441 21.7488 2.28167 21.6636 2.23892 21.5683C2.19617 21.4731 2.17407 21.3698 2.17407 21.2654C2.17407 21.161 2.19617 21.0577 2.23892 20.9624C2.28167 20.8672 2.3441 20.782 2.42211 20.7126C2.50012 20.6432 2.59194 20.5911 2.69153 20.5596C2.79112 20.5282 2.89623 20.5183 2.99995 20.5304H21C21.1037 20.5183 21.2088 20.5282 21.3084 20.5596C21.408 20.5911 21.4998 20.6432 21.5778 20.7126C21.6558 20.782 21.7182 20.8672 21.761 20.9624C21.8037 21.0577 21.8258 21.161 21.8258 21.2654C21.8258 21.3698 21.8037 21.4731 21.761 21.5683C21.7182 21.6636 21.6558 21.7488 21.5778 21.8182C21.4998 21.8876 21.408 21.9397 21.3084 21.9711C21.2088 22.0025 21.1037 22.0125 21 22.0004Z" fill="#FFB000"/>
<path d="M7.89997 18.2697L5.08997 18.1897C4.79965 18.1676 4.52774 18.039 4.32652 17.8285C4.12531 17.6181 4.009 17.3407 3.99997 17.0497L3.90997 14.2297C3.90634 14.0685 3.93549 13.9083 3.99566 13.7587C4.05582 13.6092 4.14575 13.4734 4.25997 13.3597L14.88 2.68965C15.0983 2.47044 15.3578 2.29651 15.6435 2.17782C15.9292 2.05914 16.2356 1.99805 16.545 1.99805C16.8544 1.99805 17.1607 2.05914 17.4464 2.17782C17.7322 2.29651 17.9916 2.47044 18.21 2.68965L19.45 3.91965C19.6692 4.13799 19.8431 4.39746 19.9618 4.68319C20.0805 4.96891 20.1416 5.27526 20.1416 5.58465C20.1416 5.89404 20.0805 6.20039 19.9618 6.48611C19.8431 6.77184 19.6692 7.03131 19.45 7.24965L8.76997 17.9297C8.65608 18.043 8.52005 18.1317 8.37037 18.1902C8.22069 18.2487 8.06056 18.2758 7.89997 18.2697Z" fill="#FFC960"/>
<path d="M19.2864 7.4124L14.7256 2.85156L13.8134 3.76373L18.3743 8.32457L19.2864 7.4124Z" fill="white"/>
</svg>
