<svg width="24" height="24" viewBox="0 0 24 24" fill="none" xmlns="http://www.w3.org/2000/svg">
<path d="M18.4 9.5H9.60004V6.17C9.60004 5.53348 9.8529 4.92303 10.303 4.47294C10.7531 4.02286 11.3635 3.77 12 3.77C12.6366 3.77 13.247 4.02286 13.6971 4.47294C14.1472 4.92303 14.4 5.53348 14.4 6.17C14.4 6.27506 14.4207 6.37909 14.4609 6.47615C14.5011 6.57321 14.5601 6.6614 14.6344 6.73569C14.7086 6.80997 14.7968 6.8689 14.8939 6.9091C14.991 6.94931 15.095 6.97 15.2 6.97C15.3051 6.97 15.4091 6.94931 15.5062 6.9091C15.6032 6.8689 15.6914 6.80997 15.7657 6.73569C15.84 6.6614 15.8989 6.57321 15.9391 6.47615C15.9793 6.37909 16 6.27506 16 6.17C16.0215 5.0869 15.6124 4.03954 14.8624 3.25775C14.1125 2.47597 13.0831 2.02363 12 2C10.917 2.02363 9.88755 2.47597 9.13763 3.25775C8.38772 4.03954 7.97859 5.0869 8.00004 6.17V9.5H5.60004C5.16681 9.51049 4.75535 9.69203 4.45555 10.0049C4.15575 10.3179 3.99199 10.7367 4.00004 11.17V20.33C3.99199 20.7633 4.15575 21.1821 4.45555 21.4951C4.75535 21.808 5.16681 21.9895 5.60004 22H18.4C18.8333 21.9895 19.2447 21.808 19.5445 21.4951C19.8443 21.1821 20.0081 20.7633 20 20.33V11.17C20.0081 10.7367 19.8443 10.3179 19.5445 10.0049C19.2447 9.69203 18.8333 9.51049 18.4 9.5Z" fill="#999999"/>
<path d="M14.0799 14.4991C14.0794 14.1241 13.9776 13.7563 13.7851 13.4344C13.5927 13.1126 13.3168 12.8488 12.9867 12.6709C12.6566 12.493 12.2846 12.4076 11.91 12.4238C11.5353 12.44 11.1721 12.5572 10.8586 12.763C10.5451 12.9687 10.2931 13.2554 10.1292 13.5927C9.96525 13.9299 9.89556 14.3052 9.92746 14.6788C9.95937 15.0525 10.0917 15.4105 10.3104 15.7151C10.5291 16.0197 10.8261 16.2595 11.1699 16.4091V17.4091C11.1699 17.6292 11.2574 17.8403 11.413 17.996C11.5687 18.1517 11.7798 18.2391 11.9999 18.2391C12.2201 18.2391 12.4312 18.1517 12.5868 17.996C12.7425 17.8403 12.8299 17.6292 12.8299 17.4091V16.4091C13.2018 16.2473 13.5182 15.9802 13.7403 15.6409C13.9624 15.3015 14.0805 14.9047 14.0799 14.4991Z" fill="white"/>
</svg>
