<svg width="24" height="24" viewBox="0 0 24 24" fill="none" xmlns="http://www.w3.org/2000/svg">
<path d="M22 10.2801V17.2001C22 17.3033 21.9795 17.4056 21.9397 17.5009C21.8999 17.5962 21.8415 17.6826 21.768 17.7552C21.6945 17.8277 21.6074 17.885 21.5116 17.9236C21.4158 17.9622 21.3133 17.9814 21.21 17.9801H20V19.1101C19.997 19.1887 19.9709 19.2648 19.9249 19.3287C19.8789 19.3925 19.815 19.4414 19.7413 19.4692C19.6677 19.4969 19.5875 19.5023 19.5107 19.4847C19.434 19.4671 19.3642 19.4272 19.31 19.3701L18.08 18.0001H10.79C10.685 18.0014 10.5809 17.9816 10.4837 17.9418C10.3866 17.9019 10.2985 17.8429 10.2248 17.7682C10.151 17.6935 10.0931 17.6047 10.0544 17.5071C10.0158 17.4094 9.99731 17.305 10 17.2001V10.2801C10 10.1768 10.0205 10.0745 10.0603 9.97924C10.1002 9.88395 10.1585 9.79752 10.232 9.72495C10.3055 9.65239 10.3927 9.59515 10.4884 9.55654C10.5842 9.51794 10.6867 9.49874 10.79 9.50006H21.21C21.3133 9.49874 21.4158 9.51794 21.5116 9.55654C21.6074 9.59515 21.6945 9.65239 21.768 9.72495C21.8415 9.79752 21.8999 9.88395 21.9397 9.97924C21.9795 10.0745 22 10.1768 22 10.2801Z" fill="#C1D0F8"/>
<path d="M2 5.37013V14.9301C2.01795 15.1778 2.13319 15.4084 2.32056 15.5714C2.50793 15.7344 2.75219 15.8166 3 15.8001H4.5V17.0601C4.51253 17.1549 4.55145 17.2443 4.61234 17.318C4.67322 17.3918 4.75361 17.4469 4.84433 17.4771C4.93505 17.5074 5.03244 17.5115 5.12539 17.489C5.21834 17.4666 5.3031 17.4184 5.37 17.3501L7 15.8001H17C17.2478 15.8166 17.4921 15.7344 17.6794 15.5714C17.8668 15.4084 17.9821 15.1778 18 14.9301V5.37013C17.9821 5.12242 17.8668 4.89188 17.6794 4.72887C17.4921 4.56586 17.2478 4.48362 17 4.50013H3C2.75219 4.48362 2.50793 4.56586 2.32056 4.72887C2.13319 4.89188 2.01795 5.12242 2 5.37013Z" fill="#4675F0"/>
<path d="M14.79 9H5.20996C5.07735 9 4.95018 8.94732 4.85641 8.85355C4.76264 8.75979 4.70996 8.63261 4.70996 8.5C4.70996 8.36739 4.76264 8.24021 4.85641 8.14645C4.95018 8.05268 5.07735 8 5.20996 8H14.79C14.9226 8 15.0497 8.05268 15.1435 8.14645C15.2373 8.24021 15.29 8.36739 15.29 8.5C15.29 8.63261 15.2373 8.75979 15.1435 8.85355C15.0497 8.94732 14.9226 9 14.79 9Z" fill="white"/>
<path d="M14.79 11.5H5.20996C5.07735 11.5 4.95018 11.4473 4.85641 11.3536C4.76264 11.2598 4.70996 11.1326 4.70996 11C4.70996 10.8674 4.76264 10.7402 4.85641 10.6464C4.95018 10.5527 5.07735 10.5 5.20996 10.5H14.79C14.9226 10.5 15.0497 10.5527 15.1435 10.6464C15.2373 10.7402 15.29 10.8674 15.29 11C15.29 11.1326 15.2373 11.2598 15.1435 11.3536C15.0497 11.4473 14.9226 11.5 14.79 11.5Z" fill="white"/>
</svg>
