<svg width="24" height="24" viewBox="0 0 24 24" fill="none" xmlns="http://www.w3.org/2000/svg">
<path d="M18.48 21.1298L16.78 14.8198L11.93 16.1198L7.07002 14.8198L5.38002 21.1298C5.33816 21.2604 5.33145 21.3997 5.36057 21.5336C5.38969 21.6676 5.45361 21.7915 5.54588 21.8929C5.63816 21.9943 5.75553 22.0696 5.88617 22.1112C6.01681 22.1528 6.1561 22.1592 6.29002 22.1298L8.09002 21.7598C8.20801 21.7361 8.32989 21.74 8.44613 21.7712C8.56236 21.8025 8.6698 21.8602 8.76002 21.9398L10.14 23.1598C10.2394 23.2478 10.3596 23.309 10.4892 23.3376C10.6188 23.3662 10.7536 23.3612 10.8807 23.3232C11.0079 23.2851 11.1233 23.2152 11.2159 23.1202C11.3085 23.0251 11.3753 22.9079 11.41 22.7798L11.93 20.7798L12.45 22.7798C12.4847 22.9079 12.5515 23.0251 12.6442 23.1202C12.7368 23.2152 12.8521 23.2851 12.9793 23.3232C13.1065 23.3612 13.2412 23.3662 13.3708 23.3376C13.5005 23.309 13.6206 23.2478 13.72 23.1598L15.1 21.9398C15.1902 21.8602 15.2977 21.8025 15.4139 21.7712C15.5301 21.74 15.652 21.7361 15.77 21.7598L17.57 22.1298C17.7039 22.1592 17.8432 22.1528 17.9739 22.1112C18.1045 22.0696 18.2219 21.9943 18.3142 21.8929C18.4064 21.7915 18.4703 21.6676 18.4995 21.5336C18.5286 21.3997 18.5219 21.2604 18.48 21.1298Z" fill="#9880FF"/>
<path d="M12 18.6699C16.9706 18.6699 21 14.6405 21 9.66992C21 4.69936 16.9706 0.669922 12 0.669922C7.02944 0.669922 3 4.69936 3 9.66992C3 14.6405 7.02944 18.6699 12 18.6699Z" fill="#FFE55B"/>
<path d="M12.4301 5.99982L13.4301 8.05982L15.6001 8.39982C15.6893 8.41781 15.772 8.45934 15.8398 8.5201C15.9075 8.58085 15.9578 8.65862 15.9853 8.74534C16.0128 8.83206 16.0167 8.92457 15.9964 9.01327C15.9762 9.10198 15.9326 9.18365 15.8701 9.24982L14.3001 10.8698L14.6601 13.1398C14.6799 13.229 14.6739 13.322 14.6427 13.4079C14.6115 13.4938 14.5564 13.5689 14.4839 13.6246C14.4115 13.6803 14.3246 13.7141 14.2336 13.7221C14.1426 13.7301 14.0512 13.712 13.9701 13.6698L11.9701 12.6098L9.9701 13.6698C9.88904 13.712 9.79762 13.7301 9.7066 13.7221C9.61558 13.7141 9.52874 13.6803 9.45628 13.6246C9.38382 13.5689 9.32875 13.4938 9.29754 13.4079C9.26633 13.322 9.26028 13.229 9.2801 13.1398L9.6401 10.8698L8.1401 9.19982C8.07765 9.13365 8.03403 9.05198 8.01377 8.96327C7.99352 8.87457 7.99736 8.78206 8.02491 8.69534C8.05246 8.60862 8.1027 8.53085 8.17043 8.4701C8.23816 8.40934 8.32091 8.36781 8.4101 8.34982L10.5801 7.99982L11.5801 5.93982C11.6235 5.86154 11.6884 5.79729 11.767 5.75462C11.8457 5.71194 11.9349 5.69262 12.0242 5.69892C12.1135 5.70522 12.1991 5.73689 12.271 5.79019C12.3429 5.84349 12.3981 5.91622 12.4301 5.99982Z" fill="white"/>
</svg>
