<svg width="24" height="24" viewBox="0 0 24 24" fill="none" xmlns="http://www.w3.org/2000/svg">
<path d="M12.7199 20.2199C12.5329 20.4031 12.2816 20.5057 12.0199 20.5057C11.7581 20.5057 11.5068 20.4031 11.3199 20.2199L3.70988 12.8199C3.1455 12.2899 2.70099 11.6453 2.40616 10.9294C2.11134 10.2135 1.97302 9.44279 2.00049 8.66905C2.02795 7.8953 2.22057 7.13637 2.56541 6.44317C2.91025 5.74997 3.39934 5.13853 3.99988 4.64987C6.23988 2.72987 8.99988 3.18987 11.9999 6.15987C14.9999 3.15987 17.7399 2.77987 19.9999 4.68987C20.6002 5.17759 21.0891 5.78815 21.4339 6.48051C21.7787 7.17288 21.9713 7.93102 21.9987 8.70398C22.0262 9.47695 21.8879 10.2468 21.5932 10.9619C21.2984 11.677 20.854 12.3208 20.2899 12.8499L12.7199 20.2199Z" fill="#FA7979"/>
</svg>
