<svg width="24" height="24" viewBox="0 0 24 24" fill="none" xmlns="http://www.w3.org/2000/svg">
<path d="M12 22C17.5228 22 22 17.5228 22 12C22 6.47715 17.5228 2 12 2C6.47715 2 2 6.47715 2 12C2 17.5228 6.47715 22 12 22Z" fill="#5EBEA1"/>
<path d="M12.1211 9.54688C12.7446 9.54688 13.25 10.0523 13.25 10.6758V16.8711C13.25 17.4946 12.7446 18 12.1211 18C11.4976 18 10.9922 17.4946 10.9922 16.8711V10.6758C10.9922 10.0523 11.4976 9.54688 12.1211 9.54688ZM10.8516 7.34375C10.8516 7.01562 10.9661 6.74479 11.1953 6.53125C11.4245 6.31771 11.7318 6.21094 12.1172 6.21094C12.4974 6.21094 12.8021 6.31771 13.0312 6.53125C13.2656 6.74479 13.3828 7.01562 13.3828 7.34375C13.3828 7.67188 13.2656 7.94271 13.0312 8.15625C12.8021 8.36979 12.4974 8.47656 12.1172 8.47656C11.7318 8.47656 11.4245 8.36979 11.1953 8.15625C10.9661 7.94271 10.8516 7.67188 10.8516 7.34375Z" fill="white"/>
</svg>
