<svg width="24" height="24" viewBox="0 0 24 24" fill="none" xmlns="http://www.w3.org/2000/svg">
<path d="M21.0998 10.19L19.1798 10C19.0033 9.97718 18.8362 9.90768 18.6955 9.7987C18.5549 9.68971 18.4459 9.54518 18.3798 9.38001C18.3109 9.21676 18.2867 9.03813 18.3095 8.86243C18.3323 8.68672 18.4015 8.52023 18.5098 8.38001L19.7298 6.89001C19.8863 6.69772 19.9658 6.45414 19.9529 6.20653C19.94 5.95892 19.8355 5.72495 19.6598 5.55001L18.4898 4.35001C18.3148 4.1743 18.0809 4.06984 17.8333 4.0569C17.5857 4.04397 17.3421 4.12348 17.1498 4.28001L15.6498 5.51001C15.5086 5.6167 15.3417 5.68402 15.166 5.7051C14.9903 5.72618 14.8122 5.70027 14.6498 5.63001C14.4763 5.56669 14.3237 5.45655 14.209 5.31181C14.0942 5.16707 14.0218 4.99339 13.9998 4.81001L13.7998 2.90001C13.7749 2.65249 13.6587 2.42312 13.4738 2.25671C13.2888 2.09029 13.0485 1.99877 12.7998 2.00001H11.1798C10.931 1.99877 10.6907 2.09029 10.5058 2.25671C10.3209 2.42312 10.2047 2.65249 10.1798 2.90001L9.99978 4.82001C9.97694 4.99646 9.90745 5.16362 9.79846 5.30424C9.68948 5.44487 9.54495 5.55388 9.37978 5.62001C9.21652 5.68888 9.0379 5.71313 8.86219 5.69029C8.68648 5.66745 8.52 5.59833 8.37978 5.49001L6.84978 4.28001C6.65749 4.12348 6.4139 4.04397 6.16629 4.0569C5.91869 4.06984 5.68471 4.1743 5.50978 4.35001L4.34978 5.51001C4.17406 5.68495 4.0696 5.91892 4.05667 6.16653C4.04373 6.41414 4.12325 6.65772 4.27978 6.85001L5.49978 8.34001C5.6081 8.48023 5.67722 8.64672 5.70006 8.82243C5.7229 8.99813 5.69865 9.17676 5.62978 9.34001C5.56364 9.50518 5.45464 9.64971 5.31401 9.7587C5.17338 9.86768 5.00622 9.93718 4.82978 9.96001L2.90978 10.16C2.66225 10.1849 2.43289 10.3011 2.26647 10.486C2.10005 10.6709 2.00853 10.9112 2.00978 11.16V12.8C2.00853 13.0488 2.10005 13.2891 2.26647 13.474C2.43289 13.6589 2.66225 13.7751 2.90978 13.8L4.81978 14C5.00089 14.0203 5.17301 14.0898 5.31753 14.2008C5.46205 14.3118 5.57348 14.4602 5.63978 14.63C5.71004 14.7924 5.73595 14.9705 5.71486 15.1462C5.69378 15.3219 5.62646 15.4888 5.51978 15.63L4.28978 17.13C4.13325 17.3223 4.05373 17.5659 4.06667 17.8135C4.0796 18.0611 4.18406 18.2951 4.35978 18.47L5.51978 19.63C5.69471 19.8057 5.92869 19.9102 6.17629 19.9231C6.4239 19.9361 6.66749 19.8565 6.85978 19.7L8.33978 18.5C8.48 18.3917 8.64648 18.3226 8.82219 18.2997C8.9979 18.2769 9.17652 18.3011 9.33978 18.37C9.50495 18.4362 9.64948 18.5452 9.75846 18.6858C9.86745 18.8264 9.93694 18.9936 9.95978 19.17L10.1598 21.09C10.1847 21.3375 10.3009 21.5669 10.4858 21.7333C10.6707 21.8997 10.911 21.9913 11.1598 21.99H12.7998C13.0485 21.9913 13.2888 21.8997 13.4738 21.7333C13.6587 21.5669 13.7749 21.3375 13.7998 21.09L13.9998 19.18C14.0201 18.9989 14.0895 18.8268 14.2006 18.6823C14.3116 18.5377 14.46 18.4263 14.6298 18.36C14.7922 18.2898 14.9703 18.2638 15.146 18.2849C15.3217 18.306 15.4886 18.3733 15.6298 18.48L17.1298 19.71C17.3221 19.8665 17.5657 19.9461 17.8133 19.9331C18.0609 19.9202 18.2948 19.8157 18.4698 19.64L19.6298 18.48C19.8055 18.3051 19.91 18.0711 19.9229 17.8235C19.9358 17.5759 19.8563 17.3323 19.6998 17.14L18.4998 15.66C18.3915 15.5198 18.3223 15.3533 18.2995 15.1776C18.2767 15.0019 18.3009 14.8233 18.3698 14.66C18.4359 14.4948 18.5449 14.3503 18.6855 14.2413C18.8262 14.1323 18.9933 14.0628 19.1698 14.04L21.0898 13.84C21.3373 13.8151 21.5667 13.6989 21.7331 13.514C21.8995 13.3291 21.991 13.0888 21.9898 12.84V11.18C21.9888 10.9345 21.8976 10.698 21.7335 10.5154C21.5693 10.3328 21.3438 10.217 21.0998 10.19ZM12.5398 14.71C11.9591 14.8252 11.3567 14.7507 10.8217 14.4974C10.2866 14.2441 9.84712 13.8255 9.56817 13.3033C9.28921 12.7811 9.18555 12.1831 9.27248 11.5975C9.35942 11.0119 9.63234 10.4698 10.051 10.0512C10.4696 9.63257 11.0117 9.35965 11.5973 9.27272C12.1829 9.18579 12.7809 9.28945 13.3031 9.5684C13.8252 9.84735 14.2439 10.2868 14.4972 10.8219C14.7505 11.357 14.825 11.9593 14.7098 12.54C14.6022 13.0753 14.3388 13.5669 13.9528 13.953C13.5667 14.3391 13.0751 14.6024 12.5398 14.71Z" fill="#999999"/>
</svg>
