<svg width="48" height="48" viewBox="0 0 48 48" fill="none" xmlns="http://www.w3.org/2000/svg">
<circle cx="24" cy="24" r="24" fill="#F2F2F2"/>
<path d="M20.6044 30.4408L24.3841 26.6409L20.0044 22.2379C19.7884 22.0207 19.7644 21.683 19.9564 21.4417L23.1362 17.3764C19.8844 14.5657 16.8726 14.2642 14.4008 16.3873C11.3411 19.017 11.1851 23.4321 14.0529 26.2308L22.3442 34.3371C22.4762 34.4698 22.6202 34.5663 22.7762 34.6628L20.5324 31.1887C20.3764 30.9474 20.4124 30.6338 20.6164 30.4287L20.6044 30.4408Z" fill="url(#paint0_linear_1016_12008)"/>
<path d="M33.9471 26.2782C36.8148 23.4675 36.6589 19.0645 33.5991 16.4347C30.9233 14.1307 27.6235 14.6373 24.0238 18.208L21.228 21.7787L25.6557 26.23C25.8957 26.4712 25.8957 26.8452 25.6557 27.0864L21.804 30.9587L24.4198 34.9998C24.8877 34.9274 25.3317 34.7103 25.7037 34.3484L33.9471 26.2782Z" fill="url(#paint1_linear_1016_12008)"/>
<defs>
<linearGradient id="paint0_linear_1016_12008" x1="19.998" y1="31.7134" x2="8.27238" y2="23.836" gradientUnits="userSpaceOnUse">
<stop stop-color="#A2AAB6"/>
<stop offset="1" stop-color="#AFB8C5"/>
</linearGradient>
<linearGradient id="paint1_linear_1016_12008" x1="30.7682" y1="32.0051" x2="18.2602" y2="22.1334" gradientUnits="userSpaceOnUse">
<stop stop-color="#A2AAB6"/>
<stop offset="1" stop-color="#AFB8C5"/>
</linearGradient>
</defs>
</svg>
