<svg width="48" height="48" viewBox="0 0 48 48" fill="none" xmlns="http://www.w3.org/2000/svg">
<circle cx="24" cy="24" r="24" fill="#EBF2FF"/>
<path d="M20.0101 24.8627C23.2898 24.8627 25.9484 22.1883 25.9484 18.8893C25.9484 15.5904 23.2898 12.916 20.0101 12.916C16.7305 12.916 14.0718 15.5904 14.0718 18.8893C14.0718 22.1883 16.7305 24.8627 20.0101 24.8627Z" fill="url(#paint0_linear_1016_11996)"/>
<path d="M19.8816 25.5274C17.8634 25.5298 15.8983 26.1744 14.2707 27.3678C12.6431 28.5612 11.4375 30.2416 10.8283 32.1657C10.7234 32.5051 10.7002 32.8644 10.7607 33.2144C10.8212 33.5644 10.9636 33.8952 11.1764 34.1796C11.3891 34.464 11.6662 34.6941 11.9848 34.851C12.3035 35.0079 12.6548 35.0872 13.01 35.0824H28.1766C28.3391 35.083 28.4999 35.0498 28.6487 34.9847C28.7976 34.9196 28.9312 34.8241 29.041 34.7044C29.1509 34.5847 29.2345 34.4434 29.2865 34.2895C29.3386 34.1356 29.3579 33.9725 29.3433 33.8107C29.0426 31.5158 27.9162 29.409 26.1748 27.8845C24.4333 26.3599 22.1961 25.5219 19.8816 25.5274Z" fill="url(#paint1_linear_1016_11996)"/>
<path d="M28.1534 25.5281C27.1344 25.4565 26.1125 25.6201 25.1667 26.0065C26.8001 26.9165 31.0001 29.8331 30.3001 35.0831H34.9667C35.326 35.0948 35.6828 35.0207 36.0077 34.8671C36.3326 34.7134 36.6162 34.4846 36.8352 34.1996C37.0541 33.9145 37.202 33.5815 37.2666 33.2279C37.3312 32.8744 37.3107 32.5105 37.2067 32.1665C36.596 30.2433 35.3899 28.564 33.7627 27.3708C32.1355 26.1777 30.1712 25.5324 28.1534 25.5281Z" fill="#C8DBF6"/>
<path d="M28.3634 15.3086C27.4743 15.3097 26.604 15.5647 25.855 16.0436C26.5022 17.1827 26.7471 18.5065 26.5503 19.8017C26.3535 21.0969 25.7264 22.2882 24.77 23.1836C25.2919 23.7866 25.957 24.2489 26.7042 24.5279C27.4513 24.8069 28.2566 24.8936 29.046 24.7802C29.8354 24.6668 30.5837 24.3569 31.2221 23.8789C31.8606 23.4009 32.3686 22.7701 32.6997 22.0446C33.0308 21.319 33.1743 20.5219 33.1169 19.7264C33.0596 18.9309 32.8033 18.1626 32.3716 17.492C31.9399 16.8214 31.3466 16.2701 30.6463 15.8885C29.9459 15.507 29.1609 15.3076 28.3634 15.3086Z" fill="#C8DBF6"/>
<circle cx="34" cy="16" r="4" fill="url(#paint2_linear_1016_11996)"/>
<path d="M36.2723 15.7745H34.2273V13.7295C34.2273 13.6045 34.1248 13.502 33.9998 13.502C33.8748 13.502 33.7723 13.6045 33.7723 13.7295V15.7745H31.7273C31.6023 15.7745 31.4998 15.877 31.4998 16.002C31.4998 16.127 31.6023 16.2295 31.7273 16.2295H33.7723V18.2745C33.7723 18.3995 33.8748 18.502 33.9998 18.502C34.1248 18.502 34.2273 18.3995 34.2273 18.2745V16.2295H36.2723C36.3973 16.2295 36.4998 16.127 36.4998 16.002C36.4998 15.877 36.3973 15.7745 36.2723 15.7745Z" fill="white"/>
<defs>
<linearGradient id="paint0_linear_1016_11996" x1="20.0101" y1="12.916" x2="20.0101" y2="24.8627" gradientUnits="userSpaceOnUse">
<stop stop-color="#5987FF"/>
<stop offset="1" stop-color="#4271EC"/>
</linearGradient>
<linearGradient id="paint1_linear_1016_11996" x1="20.0379" y1="25.5273" x2="20.0379" y2="35.0826" gradientUnits="userSpaceOnUse">
<stop stop-color="#5987FF"/>
<stop offset="1" stop-color="#4271EC"/>
</linearGradient>
<linearGradient id="paint2_linear_1016_11996" x1="34" y1="12" x2="34" y2="20" gradientUnits="userSpaceOnUse">
<stop stop-color="#5E8AFF"/>
<stop offset="1" stop-color="#4675F0"/>
</linearGradient>
</defs>
</svg>
