<svg width="48" height="48" viewBox="0 0 48 48" fill="none" xmlns="http://www.w3.org/2000/svg">
<circle cx="24" cy="24" r="24" fill="#FFF6E6"/>
<path d="M31.1985 28.219V16.1632H35.9706C36.7388 16.1421 37.484 16.4275 38.043 16.9569C38.6165 17.4894 38.9591 18.2263 38.9974 19.0095V21.2537C39.0369 22.7143 38.6095 24.1492 37.7778 25.3484C36.9461 26.5475 35.7538 27.448 34.3753 27.9179C33.7917 28.1185 33.1789 28.2202 32.5619 28.219H31.1985ZM33.9254 18.9V25.1537C34.6518 24.8105 35.2616 24.2603 35.6786 23.5716C36.0956 22.883 36.3015 22.0864 36.2705 21.2811V19.16C36.2601 19.0984 36.2316 19.0412 36.1887 18.9958C36.1887 18.9958 36.1887 18.9 36.0115 18.9274L33.9254 18.9Z" fill="#FFB40D"/>
<path d="M16.8413 28.2206H15.4778C14.8709 28.2221 14.2678 28.125 13.6917 27.9332C12.2937 27.4678 11.0834 26.5604 10.2422 25.3469C9.40601 24.1448 8.97157 22.7074 9.00144 21.2417V19.0796C9.01895 18.6634 9.11617 18.2546 9.28777 17.8754C9.45295 17.5169 9.68931 17.1961 9.98237 16.9326C10.2754 16.669 10.619 16.4683 10.9921 16.3427C11.3585 16.2086 11.7477 16.1481 12.1374 16.1648H16.8413V28.2206ZM12.0692 18.9017H11.892L11.7556 19.0385L11.7283 21.2554C11.7083 22.1529 11.9707 23.034 12.4782 23.7732C12.8937 24.3664 13.4582 24.8385 14.1144 25.1417V18.9017H12.0692Z" fill="#FFB40D"/>
<path d="M16.0507 13C15.7527 13.0009 15.4579 13.0619 15.1839 13.1794C14.9098 13.297 14.6621 13.4686 14.4555 13.6842C14.2418 13.893 14.0745 14.1448 13.9647 14.4232C13.8511 14.6965 13.791 14.9892 13.7874 15.2853V24.2211C13.7846 25.0289 13.8854 25.8338 14.0874 26.6158C14.6529 28.6429 15.829 30.4449 17.4546 31.7751C19.0802 33.1052 21.0757 33.8985 23.1679 34.0463V37.3579H18.464C18.2471 37.3579 18.039 37.4444 17.8856 37.5984C17.7322 37.7524 17.646 37.9612 17.646 38.1789C17.646 38.3967 17.7322 38.6055 17.8856 38.7595C18.039 38.9135 18.2471 39 18.464 39H29.5353C29.7522 39 29.9603 38.9135 30.1137 38.7595C30.2671 38.6055 30.3533 38.3967 30.3533 38.1789C30.3533 37.9612 30.2671 37.7524 30.1137 37.5984C29.9603 37.4444 29.7522 37.3579 29.5353 37.3579H24.845V34.0463C26.9372 33.8985 28.9328 33.1052 30.5583 31.7751C32.1839 30.4449 33.36 28.6429 33.9256 26.6158C34.1275 25.8338 34.2283 25.0289 34.2255 24.2211V15.2579C34.222 14.9618 34.1618 14.6691 34.0483 14.3958C33.9311 14.126 33.7593 13.8837 33.5438 13.6842C33.3333 13.4719 33.0824 13.3044 32.806 13.1915C32.5295 13.0787 32.2333 13.0228 31.9349 13.0274L16.0507 13ZM28.09 21.8947L26.7266 23.2632C26.6687 23.3275 26.6225 23.4017 26.5902 23.4821C26.5699 23.5676 26.5699 23.6566 26.5902 23.7421L26.9174 25.7263C26.9451 25.8201 26.9451 25.9199 26.9174 26.0137C26.8774 26.108 26.8111 26.1888 26.7266 26.2463C26.6447 26.3023 26.5516 26.3396 26.4539 26.3558C26.3594 26.3753 26.262 26.3753 26.1675 26.3558L24.3678 25.4253C24.2936 25.3806 24.2088 25.3571 24.1224 25.3571C24.0359 25.3571 23.9511 25.3806 23.8769 25.4253L22.0772 26.3558C21.9835 26.3821 21.8845 26.3821 21.7909 26.3558C21.6881 26.3531 21.5884 26.3197 21.5045 26.26C21.4004 26.2018 21.3188 26.1103 21.2728 26C21.2526 25.9007 21.2526 25.7983 21.2728 25.6989L21.6 23.7147C21.6203 23.6293 21.6203 23.5402 21.6 23.4547C21.5677 23.3743 21.5215 23.3002 21.4636 23.2358L19.9093 21.8947C19.8387 21.8218 19.7872 21.7325 19.7593 21.6347C19.7248 21.5421 19.7248 21.44 19.7593 21.3474C19.7801 21.2506 19.833 21.1638 19.9093 21.1011C19.987 21.0353 20.0814 20.9926 20.182 20.9779L22.1863 20.6768C22.2861 20.655 22.3767 20.6023 22.4453 20.5263C22.5193 20.4974 22.5849 20.4503 22.6362 20.3895L23.5361 18.5832C23.5895 18.4976 23.6589 18.4232 23.7406 18.3642C23.8295 18.3196 23.9275 18.2964 24.0269 18.2964C24.1263 18.2964 24.2243 18.3196 24.3132 18.3642C24.3949 18.4232 24.4644 18.4976 24.5178 18.5832L25.3631 20.3347C25.4033 20.4139 25.4647 20.4802 25.5404 20.5263C25.6081 20.5778 25.6879 20.6108 25.7721 20.6221L27.7764 20.9232C27.8887 20.9192 27.999 20.9529 28.09 21.0189C28.1837 21.0878 28.2549 21.1831 28.2945 21.2926C28.3216 21.4004 28.3216 21.5133 28.2945 21.6211C28.2549 21.7306 28.1837 21.8259 28.09 21.8947Z" fill="url(#paint0_linear_1016_11949)"/>
<defs>
<linearGradient id="paint0_linear_1016_11949" x1="23.9999" y1="39" x2="23.9999" y2="13.5417" gradientUnits="userSpaceOnUse">
<stop stop-color="#FFAF14"/>
<stop offset="1" stop-color="#FFCB67"/>
</linearGradient>
</defs>
</svg>
