<svg width="48" height="48" viewBox="0 0 48 48" fill="none" xmlns="http://www.w3.org/2000/svg">
<circle cx="24" cy="24" r="24" fill="#F2F2F2"/>
<path d="M34.6054 34.6054C31.6756 37.5351 28.1376 39 24 39C19.8624 39 16.3244 37.5351 13.3946 34.6054C10.4649 31.6756 9 28.1419 9 24C9 19.8581 10.4649 16.3244 13.3946 13.3946C16.3244 10.4649 19.8624 9 24 9C28.1376 9 31.6756 10.4563 34.6054 13.3732C37.5351 16.2901 39 19.8324 39 24C39 28.1676 37.5351 31.6756 34.6054 34.6054Z" fill="url(#paint0_linear_1016_11958)"/>
<path d="M28.4719 23.4931C29.3756 23.4931 30.1081 22.7606 30.1081 21.8569C30.1081 20.9533 29.3756 20.2207 28.4719 20.2207C27.5682 20.2207 26.8357 20.9533 26.8357 21.8569C26.8357 22.7606 27.5682 23.4931 28.4719 23.4931Z" fill="white"/>
<path d="M19.5327 23.4931C20.4363 23.4931 21.1689 22.7606 21.1689 21.8569C21.1689 20.9533 20.4363 20.2207 19.5327 20.2207C18.629 20.2207 17.8965 20.9533 17.8965 21.8569C17.8965 22.7606 18.629 23.4931 19.5327 23.4931Z" fill="white"/>
<path d="M31.5042 25.6491C31.5042 26.1588 31.0245 26.57 30.4334 26.57C29.8423 26.57 29.3625 26.1588 29.3625 25.6491C29.3625 25.1393 30.4848 24 30.4334 24C30.382 24 31.5042 25.1393 31.5042 25.6491Z" fill="white"/>
<path d="M28.6944 29.2682C27.9449 27.3921 26.0602 26.1328 24 26.1328C21.944 26.1328 20.0594 27.3921 19.3055 29.2682C19.1984 29.538 19.3269 29.8421 19.5968 29.9535C19.661 29.9792 19.7253 29.992 19.7938 29.992C20.0037 29.992 20.2007 29.8678 20.2821 29.6622C20.8732 28.1845 22.3681 27.1908 24 27.1908C25.6319 27.1908 27.1268 28.1845 27.7179 29.6622C27.7992 29.8678 27.9963 29.992 28.2061 29.992C28.2704 29.992 28.3389 29.9792 28.4032 29.9535C28.673 29.8464 28.8015 29.538 28.6944 29.2682Z" fill="white"/>
<defs>
<linearGradient id="paint0_linear_1016_11958" x1="33.5" y1="36.5" x2="12" y2="13" gradientUnits="userSpaceOnUse">
<stop stop-color="#9D9D9D"/>
<stop offset="1" stop-color="#BBBBBB"/>
</linearGradient>
</defs>
</svg>
