<svg width="48" height="48" viewBox="0 0 48 48" fill="none" xmlns="http://www.w3.org/2000/svg">
<circle cx="24" cy="24" r="24" fill="#FFF6E6"/>
<path d="M34.6054 34.6054C31.6756 37.5351 28.1376 39 24 39C19.8624 39 16.3244 37.5351 13.3946 34.6054C10.4649 31.6756 9 28.1419 9 24C9 19.8581 10.4649 16.3244 13.3946 13.3946C16.3244 10.4649 19.8624 9 24 9C28.1376 9 31.6756 10.4563 34.6054 13.3732C37.5351 16.2901 39 19.8324 39 24C39 28.1676 37.5351 31.6756 34.6054 34.6054Z" fill="url(#paint0_linear_1016_11972)"/>
<path d="M28.5754 23.4931C29.4791 23.4931 30.2116 22.7606 30.2116 21.8569C30.2116 20.9533 29.4791 20.2207 28.5754 20.2207C27.6718 20.2207 26.9392 20.9533 26.9392 21.8569C26.9392 22.7606 27.6718 23.4931 28.5754 23.4931Z" fill="white"/>
<path d="M19.6362 23.4931C20.5399 23.4931 21.2724 22.7606 21.2724 21.8569C21.2724 20.9533 20.5399 20.2207 19.6362 20.2207C18.7326 20.2207 18 20.9533 18 21.8569C18 22.7606 18.7326 23.4931 19.6362 23.4931Z" fill="white"/>
<path d="M24.4597 29.4711C26.3626 29.4711 27.9194 27.9091 27.9194 26H21C21 27.9091 22.5569 29.4711 24.4597 29.4711Z" fill="white"/>
<path d="M36 9L36.7067 10.2933L38 11L36.7067 11.7067L36 13L35.2933 11.7067L34 11L35.2933 10.2933L36 9Z" fill="#FFB40D"/>
<path d="M40 13L40.7067 14.2933L42 15L40.7067 15.7067L40 17L39.2933 15.7067L38 15L39.2933 14.2933L40 13Z" fill="#FFB40D"/>
<defs>
<linearGradient id="paint0_linear_1016_11972" x1="33.5" y1="36.5" x2="12" y2="13" gradientUnits="userSpaceOnUse">
<stop stop-color="#FFB000"/>
<stop offset="1" stop-color="#FFC33E"/>
</linearGradient>
</defs>
</svg>
