<svg width="48" height="48" viewBox="0 0 48 48" fill="none" xmlns="http://www.w3.org/2000/svg">
<circle cx="24" cy="24" r="24" fill="#E3FAF0"/>
<path d="M33.5417 11.584H15.4584C14.7732 11.584 14.1161 11.8562 13.6317 12.3406C13.1472 12.8251 12.875 13.4822 12.875 14.1673V34.4852C12.8729 34.8273 12.9568 35.1645 13.119 35.4657C13.2812 35.7669 13.5165 36.0225 13.8033 36.209C14.0901 36.3955 14.4192 36.5069 14.7603 36.5329C15.1015 36.559 15.4436 36.4989 15.7555 36.3582L17.6542 35.5186C17.9801 35.3763 18.3319 35.3029 18.6875 35.3029C19.0432 35.3029 19.3949 35.3763 19.7209 35.5186L21.6196 36.3582L23.4409 37.1848C23.7739 37.3345 24.1349 37.4119 24.5 37.4119C24.8652 37.4119 25.2262 37.3345 25.5592 37.1848L27.3805 36.3582L29.2792 35.5186C29.6051 35.3763 29.9569 35.3029 30.3125 35.3029C30.6682 35.3029 31.0199 35.3763 31.3459 35.5186L33.2446 36.3582C33.5564 36.4989 33.8986 36.559 34.2397 36.5329C34.5809 36.5069 34.9099 36.3955 35.1967 36.209C35.4836 36.0225 35.7189 35.7669 35.8811 35.4657C36.0433 35.1645 36.1272 34.8273 36.125 34.4852V14.1673C36.125 13.4822 35.8529 12.8251 35.3684 12.3406C34.8839 11.8562 34.2269 11.584 33.5417 11.584ZM30.7905 23.6869H29.0596L27.8455 26.7352C27.7728 26.8841 27.6584 27.0085 27.5162 27.0934C27.374 27.1783 27.2101 27.2199 27.0446 27.2132C26.8773 27.2208 26.7113 27.1797 26.5669 27.0949C26.4224 27.01 26.3057 26.8851 26.2309 26.7352L25.0167 23.6869L24.5 22.3952L23.9834 23.6869L22.7692 26.7352C22.6944 26.8851 22.5777 27.01 22.4332 27.0949C22.2888 27.1797 22.1228 27.2208 21.9555 27.2132C21.79 27.2199 21.6261 27.1783 21.4839 27.0934C21.3417 27.0085 21.2273 26.8841 21.1546 26.7352L19.9405 23.6869H18.2096C18.0095 23.7012 17.8118 23.636 17.6594 23.5054C17.5071 23.3748 17.4124 23.1894 17.3959 22.9894C17.4124 22.7884 17.5066 22.6017 17.6586 22.4691C17.8105 22.3364 18.0082 22.2682 18.2096 22.279H19.3334L18.61 20.3932C18.5811 20.2989 18.5724 20.1996 18.5846 20.1018C18.5969 20.0039 18.6297 19.9098 18.681 19.8256C18.7322 19.7414 18.8008 19.669 18.882 19.6132C18.9633 19.5574 19.0555 19.5195 19.1525 19.5019C19.3544 19.438 19.5722 19.447 19.7682 19.5272C19.9641 19.6075 20.1256 19.7539 20.2246 19.9411L21.1546 22.279L21.723 23.6869L21.9555 24.2811L22.2009 23.6869L22.7692 22.279L23.6992 19.954C23.7469 19.8431 23.8195 19.7447 23.9114 19.6663C24.0032 19.5879 24.1118 19.5316 24.2288 19.5019C24.4305 19.4353 24.6494 19.443 24.8459 19.5235C25.0425 19.604 25.2038 19.7521 25.3009 19.9411L26.2309 22.279L26.7992 23.6869L27.0446 24.2811L27.2771 23.6869L27.8455 22.279L28.7755 19.9411C28.8745 19.7539 29.036 19.6075 29.2319 19.5272C29.4278 19.447 29.6457 19.438 29.8475 19.5019C29.9446 19.5195 30.0367 19.5574 30.118 19.6132C30.1993 19.669 30.2679 19.7414 30.3191 19.8256C30.3704 19.9098 30.4032 20.0039 30.4154 20.1018C30.4277 20.1996 30.419 20.2989 30.39 20.3932L29.6667 22.279H30.8292C31.0306 22.2682 31.2283 22.3364 31.3802 22.4691C31.5322 22.6017 31.6264 22.7884 31.643 22.9894C31.635 23.092 31.6063 23.192 31.5587 23.2832C31.511 23.3745 31.4454 23.4551 31.3657 23.5203C31.2861 23.5855 31.194 23.6338 31.0951 23.6625C30.9963 23.6911 30.8926 23.6994 30.7905 23.6869Z" fill="url(#paint0_linear_1016_11979)"/>
<defs>
<linearGradient id="paint0_linear_1016_11979" x1="35.8667" y1="36.9007" x2="11.0667" y2="12.1006" gradientUnits="userSpaceOnUse">
<stop stop-color="#59C9A0"/>
<stop offset="1" stop-color="#68DBB2"/>
</linearGradient>
</defs>
</svg>
