<svg width="24" height="24" viewBox="0 0 24 24" fill="none" xmlns="http://www.w3.org/2000/svg">
<path d="M13.29 12.0002L21.73 3.55023C22.09 3.19023 22.09 2.62023 21.73 2.26023C21.37 1.90023 20.8 1.90023 20.44 2.26023L12 10.7102L3.54999 2.27023C3.18999 1.91023 2.61999 1.91023 2.25999 2.27023C1.89999 2.63023 1.89999 3.20023 2.25999 3.56023L10.71 12.0002L2.26999 20.4502C1.90999 20.8102 1.90999 21.3802 2.26999 21.7402C2.44999 21.9202 2.67999 22.0102 2.90999 22.0102C3.13999 22.0102 3.37999 21.9202 3.54999 21.7402L12 13.2902L20.45 21.7402C20.63 21.9202 20.86 22.0102 21.09 22.0102C21.32 22.0102 21.56 21.9202 21.73 21.7402C22.09 21.3802 22.09 20.8102 21.73 20.4502L13.29 12.0002Z" fill="#333333"/>
</svg>
