<svg width="24" height="24" viewBox="0 0 24 24" fill="none" xmlns="http://www.w3.org/2000/svg">
<path d="M12.7699 11.9995L17.8399 6.92945C18.0499 6.71945 18.0499 6.36945 17.8399 6.15945C17.6299 5.94945 17.2799 5.94945 17.0699 6.15945L11.9999 11.2295L6.92994 6.15945C6.71994 5.94945 6.36994 5.94945 6.15994 6.15945C5.94994 6.36945 5.94994 6.71945 6.15994 6.92945L11.2299 11.9995L6.15994 17.0695C5.94994 17.2795 5.94994 17.6295 6.15994 17.8395C6.26994 17.9495 6.40994 17.9995 6.54994 17.9995C6.68994 17.9995 6.82994 17.9495 6.93994 17.8395L12.0099 12.7695L17.0799 17.8395C17.1899 17.9495 17.3299 17.9995 17.4699 17.9995C17.6099 17.9995 17.7499 17.9495 17.8599 17.8395C18.0699 17.6295 18.0699 17.2795 17.8599 17.0695L12.7899 11.9995H12.7699Z" fill="#999999"/>
</svg>
