<svg width="24" height="24" viewBox="0 0 24 24" fill="none" xmlns="http://www.w3.org/2000/svg">
<path d="M12.77 11.9995L17.84 6.92945C18.05 6.71945 18.05 6.36945 17.84 6.15945C17.63 5.94945 17.28 5.94945 17.07 6.15945L12 11.2295L6.93 6.15945C6.72 5.94945 6.37 5.94945 6.16 6.15945C5.95 6.36945 5.95 6.71945 6.16 6.92945L11.23 11.9995L6.16 17.0695C5.95 17.2795 5.95 17.6295 6.16 17.8395C6.27 17.9495 6.41 17.9995 6.55 17.9995C6.69 17.9995 6.83 17.9495 6.94 17.8395L12.01 12.7695L17.08 17.8395C17.19 17.9495 17.33 17.9995 17.47 17.9995C17.61 17.9995 17.75 17.9495 17.86 17.8395C18.07 17.6295 18.07 17.2795 17.86 17.0695L12.79 11.9995H12.77Z" fill="#333333"/>
</svg>
