<svg width="24" height="24" viewBox="0 0 24 24" fill="none" xmlns="http://www.w3.org/2000/svg">
<path d="M21.73 20.45L18.19 16.91C19.48 15.33 20.26 13.32 20.26 11.13C20.26 6.1 16.16 2 11.13 2C6.1 2 2 6.1 2 11.13C2 16.16 6.1 20.26 11.13 20.26C13.32 20.26 15.33 19.48 16.91 18.19L20.45 21.73C20.63 21.91 20.86 22 21.09 22C21.32 22 21.56 21.91 21.73 21.73C22.09 21.37 22.09 20.8 21.73 20.44V20.45ZM3.82 11.13C3.82 7.1 7.1 3.82 11.13 3.82C15.16 3.82 18.44 7.1 18.44 11.13C18.44 15.16 15.16 18.44 11.13 18.44C7.1 18.44 3.82 15.16 3.82 11.13Z" fill="#999999"/>
</svg>
